<svg version="1.1" id="escudo_x5F_san_x5F_juan" xmlns="http://www.w3.org/2000/svg" x="0" y="0" viewBox="0 0 271.6 432.1" xml:space="preserve">
  <style>
    .st0{fill:#fff}
  </style>
  <path class="st0" d="M175.5 46.5l-15.1-3.8 14.3-6.2c1-.4 1.5-1.5 1.2-2.5-.3-1-1.2-1.7-2.3-1.6l-15.5 1.4 11.5-10.5c.8-.7.9-1.9.4-2.8-.6-.9-1.7-1.2-2.7-.8L153 25.9l7.5-13.7c.5-.9.3-2.1-.6-2.8-.8-.7-2-.6-2.8.1l-11.4 10.6 2.6-15.3c.2-1.1-.4-2.1-1.4-2.4-1-.3-2.1.1-2.6 1L137 17.1l-2.5-15.4c-.2-1.1-1.1-1.8-2.2-1.8s-2 .8-2.2 1.8l-2.5 15.4-7.3-13.7c-.5-.9-1.6-1.4-2.6-1-1 .3-1.6 1.4-1.4 2.4l2.6 15.3-11.5-10.5c-.8-.7-2-.8-2.8-.1-.8.7-1.1 1.8-.6 2.8l7.5 13.7-14.2-6.3c-1-.4-2.1-.1-2.7.8-.6.9-.4 2.1.4 2.8l11.5 10.5L91 32.4c-1.1-.1-2 .6-2.3 1.6-.3 1 .3 2.1 1.2 2.5l14.3 6.2L89 46.5c-1 .3-1.7 1.2-1.6 2.3.1 1.1.9 1.9 2 2l15.5 1.2-13.1 8.5c-.9.6-1.2 1.7-.8 2.7.4 1 1.5 1.5 2.5 1.2l15.1-3.9L99 72.7c-.7.8-.6 2 .1 2.8.7.8 1.9.9 2.8.3l13-8.6-5.1 14.8c-.4 1 .1 2.1 1 2.6s2.1.3 2.8-.6l9.5-12.3-.1 15.6c0 1.1.8 2 1.8 2.2 1.1.2 2.1-.4 2.4-1.5l5-14.7 5 14.7c.3.9 1.1 1.5 2.1 1.5h.4c1.1-.2 1.8-1.1 1.8-2.2l-.1-15.6 9.5 12.3c.7.8 1.8 1.1 2.8.6.9-.5 1.4-1.6 1-2.6l-5.1-14.7 13 8.6c.9.6 2.1.4 2.8-.3.7-.8.8-2 .1-2.8l-9.6-12.2 15.1 3.9c1 .3 2.1-.3 2.5-1.2.4-1 .1-2.1-.8-2.7L159.6 52l15.5-1.2c1.1-.1 1.9-.9 2-2 .1-1.1-.6-2.1-1.6-2.3zM153 50.3l18.5 12-21.3-5.5 13.6 17.3L145.4 62l7.2 20.8-13.4-17.4.1 22-7.1-20.9-7.1 20.9.1-22-13.4 17.4L119 62l-18.4 12.1 13.6-17.3L93 62.3l18.5-12-21.9-1.7 21.4-5.3-20.2-8.8 21.9 1.9-16.4-14.8 20.1 8.9-10.6-19.3 16.1 15-3.7-21.7 10.4 19.4 3.5-21.7 3.5 21.7L146 4.5l-3.7 21.7 16.1-15L148 30.5l20.1-8.9-16.3 14.8 21.9-1.9-20.2 8.8 21.4 5.3-21.9 1.7z"/>
  <path class="st0" d="M128.9 39.5c-.5-.5-1.1-.7-1.8-1-1.1-.5-2.1-.5-3.2-.3-1.4.3-2.2 1-3.3 1.8 1.4.8 2.6.9 3.9 1 1.1.1 2.1 0 3.2-.5.2-.1.5-.2.8-.2.7-.1.8-.4.4-.8zm-5.9.9c-.3.1-1.1-.3-1.5-.3l.2-.2c.2-.2 1-.7 1.4-.8-.2.2-.3.4-.3.6 0 .2.1.6.2.7zm2 .3s-1-.1-1.4-.2c-.4-.1-.6-.8-.2-1.2.2-.2.5-.4.9-.4-.5.5-.1 1.5.8 1.4.9-.1 1.1-.9.6-1.5.3-.1 1.1.1 1.1.4.1.4 0 .8-.4 1.1-.5.3-.8.3-1.4.4zm1.7-.2c.6-.3.5-1.2.4-1.3.4 0 1.1.6 1.3.7-.2.3-1.4.4-1.7.6zM129.7 49.6c-.7-.8.3-1.8 0-2.1-.3-.1-.7.2-.8.5-.2.5-.1.9 0 1.2 0 .2.2.7.5.9.6.4 1-.2 1.6-.1.5.1.6.4 1.2.7.4.2 1 0 1.4-.5.3-.4.7-.3 1.1-.1.5.3.8.1 1.2-.2.5-.5.5-1.2.4-1.9 0-.2-.1-.4-.5-.4-.3 0 .2 2.2-.7 2.1-.6-.3-.9-.5-1.2-.5-.3.1-.5.4-.6.5-.7.5-1.1.6-1.7 0-.4-.4-.8-.4-1.3-.2-.1.1-.4.3-.6.1zM124.5 35c1-.1 2-.2 3 .2.9.3 1.9.8 2.6 1.5.1.1.3 0 .3-.1-.3-.8-.6-1.1-1.1-1.5-1.4-.9-3.1-1-4.7-.9-1.8.2-3.4.7-4.9 1.9-.3.2-.9 1-.9 1.1 0 .2 1.1-.9 2.7-1.4 1-.3 2-.6 3-.8zM144.2 38.8c-2.2-1.6-3.5-1.5-4.7-1.4-1.6.2-3 1.2-3.1 1.9 0 .1-.1.4.1.2.8-.9 1.7-1.5 2.7-1.7 1.1-.2 2.1-.2 3.1.2s2 .9 2.7 1.8c.2-.1-.4-.7-.8-1z"/>
  <path class="st0" d="M145.4 36.7s-.2-.7-1-1.3c-.8-.6-1.3-.7-2.3-1.1-.5-.1-1.7-.2-2.2-.1-1.7.2-3 .8-4.4 1.8-.2.2-1.3 1.2-1.3 1.6-.3 2.4-.4 5.9.5 7.7.6 1.4-1.3-4 .3-7.4.6-1.4 3.8-2.5 4.8-2.7.7-.1 1.7-.2 2.5.1 1.1.3 1.8.8 2.7 1.4.2 0 .4.2.4 0z"/>
  <path class="st0" d="M138.3 38.8c-.5.2-1.1.6-1.4 1-.2.2-.3.5-.4.8.2.1.5.1.6.2 1.3.3 3 .5 3.8.5.8 0 2-.1 2.3-.2.4-.1.9-.3 1.2-.6-.8-1-2-1.7-3.2-1.8-1.1-.3-1.8-.5-2.9.1zm-1.3 1.6s.8-.8 1.2-1.1c-.1.4.4 1.2.5 1.3.2.2-1.3-.1-1.7-.2zm5.5-.9c.4.1 1.2.5 1.2.9-.5.2-.9.3-1.3.3.2-.4.3-1.1.1-1.2zm-.3.5c-.1.5-.5.7-1.1.8-.2 0-.4.1-.7.1.1 0-.5.1-1.2-.3s-.8-1-.7-1.4c.2-.3.9-.3 1.2-.3-.4.4-.4 1.1 0 1.3.2.1.6.2.8.2.8-.1.8-.9.5-1.5.4.1 1.3.2 1.2 1.1zM130.1 56.2c-.5-.1-1-.2-1.3-.2.3.2.3.6.5.8.3.5.8.6 1.3.8.8.3 1.7.4 2.6.4.6 0 1.7-.3 2.3-.6.8-.5.8-1.1 1.2-1.8-.5.4-1 .5-1.5.6-.4 0-3.9.2-5.1 0zM133.5 53.1c-.4.3-.7.2-1 0-.6-.4-1.1-.2-1.6 0s-1.6.6-2.1.8c-.2.1-.3.1-.3.4.1.1 3.5.3 4.5.3.8 0 4.2-.3 4.4-.6-.5-.6-1.9-.8-2.5-1.2-.5 0-1 0-1.4.3zM126.2 37.5c1.1.1 2.1.5 3 1.2.2.1.1-.2.1-.2-.2-.6-1.8-1.4-3.5-1.3-1.3 0-2.7 0-4.8 1.7-.4.4-.9.9-.7 1 .7-.9 1.7-1.5 2.6-1.9 1-.4 2.1-.6 3.3-.5z"/>
  <g>
    <path class="st0" d="M255 292c-.3.2-.5.5-.8.9-.1.2-.3.4-.4.6-.3.4-.7.8-1 1.2-.5.7-1.1 1.4-1.7 2-1.4 1.3-2.1 2.7-2.4 4.1h.2c1.7-.7 3.6-1.2 6.2-1.6.5-.1.9-.2 1.5-.3v-.5c-.3-2.8-.1-5.6.6-8.4-.6.6-1.4 1.3-2.2 2zM245.3 242.1c.2-.3.3-.6.5-1-.2-.1-.3-.2-.5-.2-.5-.3-1.1-.5-1.5-.9-1.6-1.2-3.5-1.5-5.4-1.7-1-.1-2-.1-3-.1h-.8c.3.4.6.7.9 1.1 1 1.2 2 2.3 2.9 3.5 1 1.2 1.5 2.4 1.7 3.6.1.4.1.8.2 1.2.1.8.3 1.7.3 2.5 0 1.3.7 2.2 1.6 3.2 1.8 1.8 3.6 3.6 5.1 5.8 0-.7-.2-1.4-.6-2.1-.5-1-1.1-2-1.9-3-1.1-1.5-1.6-3.3-1.6-5.5 0-1.4.3-2.7.9-3.9.3-.8.7-1.6 1.2-2.5zM234.5 319.2c.3-.5.5-1.1.8-1.6.2-.4.4-.8.5-1.2.5-1.1 1.1-2.3 1.5-3.5.3-.8.5-1.8.7-3 .1-.6.1-1.1.1-1.7 0-.5.1-1.1.1-1.6.2-1.9.7-3.7 1.6-5.4.7-1.4 1.5-2.8 2.3-4.2.3-.6.7-1.3 1-1.9.7-1.3 1.4-2.5 2.1-3.8.2-.4.4-.7.6-1.1.5-.9 1-1.8 1.4-2.7.4-1 1-2.3 1.7-3.6-.2.2-.4.4-.6.5-.4.3-.7.7-1.1 1.1-1.1 1.1-2.3 2.3-3.7 3.1-.5.3-1 .7-1.4 1.2-1.8 1.7-3.5 3.8-5.2 6.4-1.8 2.7-2.8 5.7-3.1 8.9-.1.8-.2 1.7-.4 2.5-.2 1.1-.2 2.1 0 3.2.2.7.3 1.5-.1 2.4 0 .1-.1.1-.2.2h-.2c-.1 0-.1-.1-.2-.1-.1-.1-.2-.1-.3-.2-.4-.5-.7-1-1.1-1.4l-.6-.8c-1.5-2-2.3-4.3-2.5-7-.1-.9-.1-1.8-.1-2.6 0-1.2 0-2.5-.2-3.8-.2-1.6-.6-2.9-1.2-4-.2-.5-.5-.9-.8-1.4 0 .5.1 1.1.1 1.6.1 1.7.2 3.4.1 5.1-.1 1.7-.2 3.5-.2 5.2v.2c0 .3 0 .7.1 1 .5 1.7.9 3.5 2.1 5 .3.3.5.7.7 1.1.3.4.5.8.8 1.2l.3.4c.6.8 1.2 1.6 2 2.2 1 .8 1.6 1.5 2.1 2.4v1.3c0 .1 0 .1-.1.2l-.9 1c-.7.7-1.3 1.5-2 2.3-1.2 1.4-1.7 2.7-1.6 4.3.1 1.1-.1 2.3-.4 3.4-.4 1.3-1 2.6-1.7 3.8.5-.6 1-1.3 1.5-1.9l.4-.6c1-1.3 2-2.8 2.5-4.6.2-.9.5-1.8.8-2.9.6-1.6 1.3-3.1 2-4.6zM249.7 177.4c-.1.2-.1.4-.2.6-.1.3-.2.7-.4 1l-.3.8c-.6 1.5-1.2 3.1-1.9 4.6-1 2.3-2 4.5-2.4 7-.2 1.1-.3 2.5.3 3.8l.3.7c.7 1.5 1.4 3.1 2.6 4.3l.1.2v.1c0 .1 0 .2.1.3.1.4.3.8.5 1.1.3.8.7 1.6.9 2.5l.1.3c.4 1.4.8 2.8.6 4.4 0 .1-.1.2-.2.3-.1 0-.2 0-.3.1-.2.1-.5.1-.8.2h-1.3c-.7 0-1.4-.1-2 .2-.2.1-.3 0-.4 0h-.1c-1.9-.2-3.5-1.3-4.7-3.3-1-1.7-2.2-3.2-3.5-4.5l-.7-.7-.5-.5-3-3.1c.2.6.4 1.2.7 1.8 1 2.4 2 4.8 3.6 6.9.9 1.2 2 2.5 3.6 3.2 1.2.5 2.4.8 3.8.9h1.2c.9 0 1.8 0 2.6.2.2.1.4 0 .7-.1.2 0 .4-.1.5-.1h1.1c.1 0 .2 0 .2.1 0 0 .1.2 0 .3l-.3 1.2c-.3.9-.5 1.7-.7 2.5-.4 1.4-.4 2.6-.3 3.7-2-1-4.2-1.3-5.5-1.4h-.1c.5.4.8.8 1 1.4v.5c.2-.6.6-1 1.5-.8 1.1.2 2.4.6 3.2 1.4 0 .1 0 .2.1.4.7 2.3 1 4.9.9 8.1V228.8c0 .2 0 .3-.1.5-.3.8-.3 1.7-.2 2.6v1.3c0 .1.1.2.1.4.1-.1.1-.2.2-.3.4-.7.7-1.3 1-2 0-.1 0-.3-.1-.5 0-.1 0-.2-.1-.3 0-.3-.1-.6-.1-.9-.1-.6-.2-1.3-.2-1.9 0-.6.1-1.2.2-1.7 0-.2.1-.3.1-.5.1-1 .3-2 .5-3 0-.2.1-.5.1-.7.2-.9.4-1.8.2-2.7-.5-1.9-.3-3.8-.2-5.2v-.2c.2-2.2.5-4.4.5-6.7v-3.3-2.8c0-2.2-.3-4.1-1-5.9-.7-1.7-1.1-3.5-1.2-5.3-.1-1.2-.1-2.5-.2-3.8 0-.7-.1-1.3-.1-1.9-.1-1.6-.1-3.2-.1-4.7.1-.8.1-1.3.1-1.9z"/>
    <path class="st0" d="M247.3 281.2c0-.1.1-.1.1-.2l-.4.4c-.7 1-1.5 2.3-2.2 3.5l-.6 1.2c-.1.2-.2.4-.2.6l-.1.4h.1c1-.8 1.9-1.7 2.8-2.5l.8-.7-.1-.2v-.1c-.4-.7-.5-1.4-.2-2.1-.2-.1-.1-.2 0-.3zM196.4 377.2c.7-.5 1.3-1.1 2-1.5 1.9-1.3 3-3.2 3.9-4.7.6-1 1.3-1.9 1.9-2.8.5-.6 1-1.3 1.5-1.9.8-1 1.6-2 2.3-3.1l.6-.8c1.3-1.9 2.7-3.8 3.8-5.9.6-1.1 1.4-2.2 2.2-3.2.2-.2.4-.5.5-.7l.9-1.2c1.1-1.4 2.2-2.9 3.5-4.2l1.4-1.4 1.8-1.8c1.1-1 2.2-1.9 3.3-2.8.7-.6 1.5-1.1 2.3-1.6.1-.1.3-.2.4-.3-1.1-.1-2.2-.1-3.3.3-3.5 1.2-6.7 3.1-9.5 4.7-1.1.7-2.2 1.5-3.2 2.2l-.4.3c-1.9 1.4-3.3 2.9-4.4 4.6-.3.5-.7 1.1-1 1.7-.3.5-.6 1.1-.9 1.6-1.3 2-2.2 4-2.7 6-.3 1.1-.7 2.3-1.1 3.6-.1.2-.2.4-.4.6-.1.1-.1.2-.2.2-.1.1-.1.1-.2.1s-.2-.1-.2-.1c-.7-1.1-1-2.2-1.2-3.3-.3-1.3-.2-2.7-.2-3.9v-1.7c0-.5.1-1.1.2-1.6 0-.2.1-.4.1-.6 0-.3.1-.6.1-.9.1-.4.1-.8.2-1.3 0-.4.1-.7.1-1.1.1-.7.1-1.4.2-2.1.2-.8.4-1.7.6-2.5.1-.6.3-1.2.4-1.7-.7 2.1-1.5 4.1-2.5 6.1-.7 1.5-1.2 3.2-1.5 5.3-.1 1.1 0 2 .3 2.8l.1.3.9 2.1.2.5c.5 1.5 1 3 1.4 4.5.3 1.3.7 2.7.2 4.3-.1.3 0 .7 0 1.1 0 .2.1.5.1.8v.1l-1.2 2.3v.1c-1.2 1-2.4 1.4-3.9 1.6-1 .1-1.9.6-2.6 1.3l-.8.9c-.5.5-1 1.1-1.5 1.6l.4.4c1.3-.4 2.5-1.2 3.6-2 .4-.4.9-.8 1.5-1.3z"/>
    <path class="st0" d="M211.5 346.1c.7-.6 1.4-1.1 2.1-1.6.7-.5 1.4-1 2.2-1.5l.9-.6c-.3-1.7-1.1-3.3-2.1-4.8-.2-.4-.5-.8-.7-1.2 0 1.4-.4 2.8-1.1 4.5l-.1.2c-.8 1.8-1.5 3.5-1.7 5.5l.5-.5zM177.5 369l-.2.2c-.5 0-.7.3-1 .9v.1l-.3.6c-.5.9-1 1.8-1.9 2.5-2 1.6-3.6 3.4-4.8 5.6-.5 1-.9 2-1.3 3l-.1.2c-.4.9-.6 1.9-.9 2.8 0 .1-.1.2-.1.4 2.1-1.6 4.2-2.9 6.2-3.8 2-.9 3.3-2.3 4-4.1.3-.9.7-2 1-3.1.1-.4 0-.9-.1-1.2-.2-.8-.2-1.6 0-2.5.2-.9.4-1.6.2-2.4l-.7.8zM203.4 340.1c-.2 1.5-.5 3.1-.9 4.5-.2.8-.4 1.7-.6 2.5-.2 1-.3 2-.4 3-.1.8-.1 1.5-.3 2.3-.3 2-.6 4.7-.5 7.4 0 .9.1 1.8.5 3 .8-2.8 1.6-5.2 2.9-7.5l.4-.7c1.2-2.2 2.5-4.4 4.3-6.3.1-2.6-.4-5.1-1-7.2-.5-2.3-1.6-4.3-2.9-6.5-.4-.6-.6-1.3-.8-1.9l-.1.2v.5c0 .7.1 1.4-.2 2.1-.1.2-.1.4 0 .7v.2c0 .9-.1 1.7-.3 2.5 0 .4-.1.8-.1 1.2zM209.3 341.3l.7 4.6c.1-.3.1-.6.2-.9.3-1.3.8-2.4 1.2-3.6l.3-.6c.5-1.2 1.1-2.6 1.1-4-.8 1.7-2.1 3-3.2 4.3l-.3.2z"/>
    <path class="st0" d="M142.4 400.7c.3-.2.6-.5 1-.7.8-.6 1.6-1.1 2.4-1.6.2-.1.4-.3.6-.4.9-.6 1.8-1.1 2.8-1.5 2.2-.8 4.5-1.1 6.3-1.3.9-.1 1.8-.3 2.6-.4l.5-.1c.6-.1 1.2-.2 1.7-.5s1-.5 1.5-.7c.3-.2.7-.3 1-.5.2-.1.4-.2.6-.4.2-.1.3-.2.5-.3.3-.2.7-.4 1-.6.9-.5 1.9-1.1 2.8-1.6.8-.4 1.7-.8 2.5-1.2.4-.2.8-.3 1.1-.5.1 0 .2-.1.3-.2l.6-.3c2.5-.9 5.1-1.8 7.7-3.1l.1-.1.2-.1c.5-.2 1-.4 1.5-.7l3.3-1.5c.5-.2 1.1-.6 1.6-.9.4-.2.8-.5 1.2-.7.2-.1.4-.2.7-.3l-3-.4c-.2.1-.5.1-.8 0-.3-.1-.6-.3-.7-.5l-4-.3c-1.2-.1-2.4.3-3.6 1.1-1.3 1-2.6 1.7-3.8 2.4-1.3.7-2.6 1.5-3.8 2.3-.4.2-.7.5-1.1.7-.2.1-.4.4-.6.6-.2.3-.4.5-.6.8-.3.4-.7.9-1 1.3-.2.2-.4.2-.6.3-.1 0-.3.1-.4.1-.1 0-.2 0-.3-.1-.1-.1-.1-.2-.1-.3l.1-.5c.1-.3.1-.6.2-.8.5-1.5 1-3 1.4-4.5.6-1.9 1.3-4 2.5-5.8 1.2-2 2.8-3.7 4.6-5 .1-.1.2-.1.2-.2-.1 0-.2.1-.2.1-.7.3-1.4.6-1.9 1-2.2 1.8-3.9 4.3-5 7.4-.3.7-.5 1.4-.7 2.1-.4 1.2-.8 2.5-1.3 3.7-.5 1.2-1.2 2.8-1.9 4.3-.2.5-.5 1-.8 1.5-.1.3-.3.5-.5.8 0 .1-.1.1-.2.1s-.3.1-.5.2c-.4.2-1 .4-1.5.4-1 .1-2 .2-2.9.2-.4 0-.8 0-1.2.1H153.9c-2 .5-3.9 1.2-5.7 2.3-2.5 1.5-5.2 2.5-8.8 3.2.3.1.7.2 1 .3.7.8 1.4 1.1 2 1.3zM9.2 296.4c.1.1.2.2.4.3 1.5.9 2.4 2.4 3.2 3.6l.4.6c1.1 1.7 2.2 3.4 3.5 4.9 1.5 1.7 3.5 2.9 6.2 3.7-1.2-1.9-2.2-4.1-2.9-7-.3-1-.4-2.1-.6-3.2-.1-.5-.1-.9-.2-1.4h-.1c-.2-.1-.5-.3-.8-.4-1.5-.9-3.1-1.3-5-1.2-.5 0-1 .1-1.5.1-.9.1-1.7.1-2.6 0zM253.6 290.5c-1.5.7-3 1.4-3.8 2.9-.1.2-.3.3-.5.4l-.3 3.5c.2-.3.4-.6.6-.8 1.8-2.4 3.5-4.7 5.5-6.7-.1.1-.3.1-.4.2-.3.1-.7.3-1.1.5z"/>
    <path class="st0" d="M178 378.4c1.1-.7 2-1.5 2.6-2.7.1-.2.3-.4.4-.6l.1-.1c.5-.6 1-1.3 1.6-1.9-1.1.1-2.3.3-3.5.6.1 1.8-.6 3.3-1.2 4.6v.1zM19.7 293.9c0-.3 0-.7.1-1 0-.3.1-.6.2-.8.2-.7.3-1.3.1-1.9-.2 0-.5 0-.7-.1-.6-.1-1.2-.1-1.8-.2-.9-.1-1.8-.3-2.6-.6-.5-.2-1.1-.4-1.6-.6l6.1 6.7c.2-.4.2-.9.2-1.5zM11 276.5c1-1.1.9-2.9-.2-3.9s-2.7-.9-3.7.1c-.1.1-.2.1-.2.2-1 1.1-.9 2.9.2 3.9s2.8.9 3.9-.3zM11.5 288.4c0 .1 0 .2.1.3.4 2 .9 4 .2 6.1h2c1.4 0 2.5.3 3.6.8.4.2.8.4 1.2.5-.2-.2-.3-.5-.5-.7l-.9-.9c-.4-.3-.8-.7-1.2-1.1-1.2-1.4-2.4-2.8-3.7-4.3-.3-.1-.6-.4-.8-.7zM118.6 415.7l1.8-1.8c1.8-1.7 2.7-2.5 4.8-4.3 1.4-1.2 3.3-3 4.1-3.7-1.2.6-3.7 2.4-4.6 3.1-.4.3-2.4 1.8-2.9 2.2-1.3.9-2.7 2.2-3.8 3.3-1.9 1.8-3.2 2.9-5 4.8-.7.8-2 2.5-2.8 3.2-.1.1-.1.2-.2.3l-.1.2c-1.1 1.5-2.1 3.2-2.9 5-.2.4-.3.8-.4 1.2.9-.5 1.8-.6 2.5-.7.5-.1 1-.1 1.6 0 1.7-3.3 4.1-7.5 6.3-10.6.3-.7 1.2-1.7 1.6-2.2z"/>
    <path class="st0" d="M31.5 321.2v2.2c-.1.7.1 1.3.6 2 .6.9 1.3 1.7 1.9 2.5l1.2 1.5c.2.3.5.6.7.9.8 1 1.6 2 2 3.2.1.2.3.5.4.7l.1.1.7 1.1c.9 1.2 1.8 2.5 2.7 3.8.4.6 1 1 1.4 1.3l2.1.9c-.1-.1-.2-.2-.3-.4l-.5-.5c-.4-.4-.8-.9-1.2-1.4-1.8-2.2-3.1-4.5-4.6-7.4l-.1-.1c-.4-.7-.7-1.4-1.4-1.8h-.1c-.2-.3-.4-.5-.5-.7-.4-.5-.8-1-1.1-1.5-1.5-2.1-2.3-4.3-2.4-6.7-.1-1.6-.5-3-1.4-4-1.4-1.6-2.5-3.6-3.4-6l-.2-.5c-.2-.6-.5-1.2-.7-1.8-1.2-3.2-1.8-6.2-1.8-9.3 0-.7.1-1.5.1-2.2 0-.4.1-.8.1-1.3.1-1.2.1-2.5.1-3.7 0-1.7 0-3.6.2-5.3.1-1 .1-2 .1-3.1v-1.8-1.6c0-1.2 0-2.4.1-3.6-1.1 1.2-2 2.4-2.7 3.5-.9 1.4-1.4 3-1.6 5.2-.1.6-.1 1.3-.2 1.9 0 .5-.1 1-.1 1.5-.1.8-.2 1.6-.3 2.3-.1.6-.2 1.2-.3 1.7-.2 1.1-.4 2.3-.5 3.4-.2 2.9.1 5.5 1.1 7.8l.3.7c.7 1.8 1.5 3.6 2.7 5.2.2.2.3.5.5.7.1.2.2.3.3.5.1.1.1.2 0 .3-.1.1-.2.1-.2.1-.3 0-.6-.1-.7-.1-.4-.1-.7-.1-1-.2-.4-.1-.7-.2-1-.4l-1-.4c-1-.5-2.1-.9-3.1-1.4-1.3-.7-2.5-1.7-3.6-3.2l-.6-.8c-1-1.3-2-2.7-2.8-4.1-.7-1.3-1.6-2.3-2.6-3.1-.4-.3-.9-.7-1.3-1 .3.7.5 1.4.8 2.1.3.6.5 1.3.8 1.9.7 1.7 1.3 3.4 2.1 5.1 1.3 2.8 3.4 5 6.4 6.9 1.2.8 2.4 1.1 3.6 1.1H28.1s.2 0 .2.1l.2.2c.2.2.4.4.5.6.6 1.1 1.2 2.4 1.9 3.8.5 1.1.6 1.8.6 2.6zM115.2 409c2.8-1 5.5-2.1 8.4-3.5l.6-.3c1.1-.5 2.2-1.1 3.4-1.3v-.1h-.6c-.6 0-1.2 0-1.8-.2-.7-.2-1.2-.3-1.7-.1-.1.1-.4.2-.5.2-.6.1-.8.2-1.3.3l-.2.1c-.8.2-1.5.5-2.3.8-1.3.4-2.6.9-3.9 1.3-1.5.5-3.1.9-4.6 1.3-1.8.5-3.7 1-5.6 1.6-1.8.6-3.7 1.2-5.5 1.8-1.2.4-2.5.8-3.7 1.2-1.2.4-2.4.7-3.7 1.1H92h.2c1 0 2 .1 3 .2 3.1.4 3.9 2 4.1 2.5.1.2.1 1.2 0 1.5-.1.3-.7.9-.7.9.2 0 .4-.1.6-.2.7-.4 1.4-.8 2.1-1.3l.4-.2c.5-.3 1-.6 1.4-1 1-.7 2-1.4 3-1.9 2.2-1.1 4.2-2.2 6.1-3.3 1.1-.6 2.1-1.1 3-1.4zM125.1 411.7l-1.3 1.4-1.1 1.1-1 1.2c-1.5 2-2.2 2.6-3.5 4.9l-1.4 2.6c-.9 1.7-2.2 4.1-3 6 .4.2 1.7 1.4 2.2 3 .1-.4.2-.7.3-1 .7-2.7 1.5-5.1 2.6-7.2 1.1-2.3 2.5-4.5 3.8-6.7 1.1-1.8 2.3-3.5 3.5-5.2.6-.8 3.2-3.9 3.8-4.7-.2.2-2.1 1.7-2.9 2.4-.9 1.1-1.1 1.4-2 2.2zM128.4 401.3c.1 1.2.6 2.3 1.3 3.1-.5-2.3-.5-4.3 0-6.2-.8.6-1.4 1.5-1.3 3.1z"/>
    <path class="st0" d="M96.9 415.4c-.6-.3-1.2-.6-1.9-.7-1.8-.4-3.6-.4-5.2-.3-.9.1-1.4.3-1.7.8-.1.6.2 1 .6 1.5 1.4 1.5 3.4 2.2 5 2.4.8 0 1.6-.2 1.8-.3 1-.4 2.5-1.2 2.5-1.9.1-.8-.9-1.4-1.1-1.5zM184.6 373.1c-1.2 1.1-2.2 2.3-3.2 3.5-.4.6-.9 1.1-1.3 1.7l4.6.3c0-.2 0-.5-.1-.7-.1-.7-.2-1.4-.2-2.1 0-.7 0-1.5.1-2.2.1-.2.1-.3.1-.5zM12.7 229.1v.5c-.1.9-.1 1.9-.3 2.8-.1.5-.1 1-.1 1.5s0 1-.1 1.5c-.2 1.2-.3 2.4-.4 3.6 0 .5-.1 1.1-.1 1.6-.1 1.3-.1 2.6-.1 3.9v2.1c0 1.5.3 3.1 1 4.9.5 1.3 1.1 2.7 1.7 4 .2.5.5 1.1.7 1.6 0 .1.1.2.2.3l.3.6c.3 1.3 1 2.5 1.7 3.8.2.3.4.7.6 1l.1-.8c0-.4.1-.7.2-1.1.1-.8.2-1.5.3-2.3.1-2.6.1-5.4 0-8.7 0-.9-.1-1.8-.2-2.7l-.1-.7c-.1-.5-.1-1-.2-1.4-.1-.9-.3-1.8-.3-2.7-.1-2-.5-4.1-1.4-6.2-.8-1.9-1.7-3.9-2.7-5.8-.4-.4-.6-.8-.8-1.3zM268.6 240.8l-1.5 3c-.4.8-.8 1.7-1.2 2.5-1.3 2.6-2.7 5.1-4.1 7.6-.8 1.4-1.7 2.9-2.5 4.2-.4.6-.7 1.2-1.1 1.8l-.1.1c-1.5 1.9-3.2 3.4-5.2 4.4-1.7.9-2.8 2.2-3.3 3.8v.1c0 .2-.1.3-.1.4.2 1.1.3 2.3.5 3.5.1.8.3 1.6.5 2.4l.1.3c.7-1.4 1.1-2.9 1.1-4.6 0-1.2 0-2.5.4-3.6 1.1-1.5 2.5-2.4 3.9-3.2l1.5-.9c.6-.4 1.2-.8 1.8-1.1.6-.3 1.2-.8 1.7-1.3.3-.2.5-.5.8-.7 2-1.6 3.4-3.2 4.6-5 1.2-1.9 1.5-3.9 2-6l.1-.5c.1-.5.2-.9.2-1.4.1-.5.2-1.1.3-1.6.5-2.1 1.2-4.2 1.9-6.2.2-.6.4-1.2.6-1.9v-.2c-1.1 1.3-2.1 2.7-2.9 4.1z"/>
    <path class="st0" d="M7.3 258.1c.3.5.7.9 1 1.4.7 1.1 1.8 1.8 3.1 2.2 1 .3 1.8.6 2.6 1.1.8.5 1.5 1.1 2 1.7.5.7 1.1 1.7.4 3.1-.4.7-.5 1.4-.6 2-2.1.5-4.1 1.2-6.1 1.7h-.1c.6.1 1.1.2 1.6.6.1.1.2.3.3.4-.1-.6 0-1.1.8-1.4 1.3-.5 2.6-.9 3.6.4.1.5.3 1 .6 1.5 1 1.6 1.4 3.5 1.7 5.3l.1.8c.2 1.2.4 2.3.8 3.5.3.9.7 2.1.8 3.5 0 .5.2 1 .5 1.6l1-6.2c-.1-.2-.1-.3-.2-.5l-.6-1.8c-.2-.9-.4-1.8-.5-2.6-.1-1.1.2-2.2.5-3.1.3-1 .5-2 .6-2.9.1-1.1-.3-2.2-.7-3.2-.4-1-.5-2-.4-3v-.1c.5-1.1 1.5-1.6 2.4-2.1 1.2-.6 2.2-1.2 3.1-1.8.4-.2.7-.5 1-.9.4-.4.8-.7 1.2-1 1.6-1 2.9-2.4 4-3.5.8-.8 1.3-1.5 1.8-2.2 1.7-2.7 2.7-6.7 2.5-10.1v-2.3l-.3.6c-.4.8-.9 1.5-1.4 2.3-.6.9-1.1 1.9-1.7 2.8-.4.7-.8 1.5-1.2 2.2-.3.5-.5 1-.8 1.5-.1.2-.2.3-.4.5l-.4.4c-.1.1-.2.1-.3.1-.1 0-.2-.1-.2-.3v-.7-1-2.1-3.7c0-.6-.1-1.1-.2-1.7-.1-.4-.2-.7-.3-1.1-.1-.4-.2-.9-.3-1.4-.3-1.7-.6-3.6-.6-5.6v.1c-.5.8-1.1 1.7-1.6 2.5-.8 1.3-1 2.5-.5 3.8.4 1.1.7 2.2.9 3.2.1.4.1.8.2 1.2.2 1.8.5 3.7.2 5.6-.2 1.8-.5 3.2-.9 4.6-.5 1.6-1 3.2-1.9 4.7-.3.6-.8 1.3-1.7 1.8h-.3l-.2-.2c-.2-.8-.2-.9 0-1.5 1.1-2.6 1.7-5.4 1.7-8.3 0-1.9-.3-3.7-.7-5.4-.2-1-.4-2-.8-3-.4-1.1-1-2.3-1.4-3.4-.2-.5-.5-1.1-.7-1.6-1-2.4-1.5-4.5-1.4-6.4v-1.4-1.5c.1-1.6-.3-3.1-.7-4.4-.5-.8-.5-4-.5-4v-.6c0-.9 0-1.9.6-2.7-.1-.3-.2-.5-.4-.8-.3-.6-.7-1.4-.3-2.3v-.1c.6-.5 1.2-.7 1.9-.6h.4c.5 0 1 .1 1.5-.1s1-.3 1.6-.5c2.3-.7 4.7-1.4 6.9-2.7 2.4-1.6 4-3.1 5-5l.6-.9c.4-.6.9-1.2 1.2-1.9.7-1.4 1.4-2.9 2-4.4.2-.4.3-.8.5-1.2-1.3.4-2.5 1-4 2.1-2 1.4-3.8 3-5.4 4.8-1.7 1.9-5.1 5-7.3 6.6-1.2.8-2.5 1.6-4 2.3-.5.3-1.2.5-1.9.1-.1 0-.2-.1-.2-.2H16.1l-.2-.2v3.8c0 1.4.2 2.6.7 3.8.6 1.3.6 2.6.1 4-.4 1.1-.4 2.3-.1 3.9.3 1.4.6 2.7 1.1 4.1.2.5.3 1-.1 1.6 0 .1-.1.1-.2.1s-.2 0-.2-.1l-1.8-1.6c.3.9.7 1.7 1.2 2.6l.9 1.8c1.2 2.9 1.5 5.9 1.8 8.8l.1.9c0 .3.1.6.1.9 0 .3.1.6.1.9 0 .3.1.6.1.9.1.9.2 1.8.2 2.7v8.6c-.1.6-.2 1.1-.2 1.7-.1.7-.2 1.3-.3 2-.1.4-.1.8-.1 1.2-.1.6-.1 1.1-.2 1.7 0 .3-.2.5-.3.8 0 0-.1.2-.2.3-.1.1-.2.2-.4.1-.9-.3-.9-1-.8-1.5v-.5c-.2-.2-.4-.5-.6-.7-.5-.5-.9-1-1.5-1.4-1.5-1.2-2.9-2.6-4.1-4.4-1.6-2.3-2.9-4.1-4.1-5.8-1.6-2.2-3.2-4.3-4.9-6.5l-1-1.4c.1.3.3.6.4.9.5 1.3 1 2.6 1.5 3.8 1.1 2.9 2.3 5.3 3.7 7.4-.1.8.2 1.2.5 1.6zM92.6 379.7c1.5.7 2.9 1.6 4.5 2.4.5.3 1 .6 1.6.9 0-.2 0-.4-.1-.5l-.2-.6c-.3-.9-.6-1.9-1-2.8-.6-1.3-1.3-2.7-2.1-4.2-.2-.4-.5-.7-.9-1.1-.2-.2-.3-.4-.5-.6l-.4-.5c-.8-1-1.7-2.1-2.7-2.9v.2c-.1.5-.2 1-.2 1.6v.4c-.1 1.4-.1 2.8 0 4.2.2 1.6.6 2.8 2 3.5zM120.1 385.8c.6-.1 1.1-.1 1.7-.1 1.6 0 3.2.4 4.9.8 1 .3 1.9.5 2.7.6.4.1.9.1 1.3.2.6.1.8.1 1.3.2.2.1.8.1 1.1.2 1.2.3 2.3.4 3.5 0 1.5-.5 3.2-.6 4.6-.8.3-.1.7-.1 1-.2.7-.2 1.4-.3 2.1-.3h.1c-.3-.1-.5-.2-.8-.3-.3-.1-.6-.2-1.1-.2-1 0-1.9 0-2.8.2-.4.1-.8.2-1.2.2-.5.1-1 .2-1.6.3-.8.2-1.7.4-2.6.3-.9 0-1.8-.1-2.8-.3-1.6-.3-3-.6-4.4-1.1-1.6-.6-3-.8-4.4-.7-1 0-1.8.4-2.6 1z"/>
    <path class="st0" d="M124 383.2c1.1 0 2.1.3 3 .6.4.1.7.2 1.1.3l1 .3c1.3.3 2.7.7 4.1 1 1 .2 2.1 0 3.2-.2.4-.1.9-.2 1.3-.2.5-.1.9-.2 1.4-.3.4-.1.9-.2 1.3-.3.6-.1 1.1 0 1.7 0 .4 0 .9.1 1.3.2.1 0 .2 0 .4.1v-.1c-1.1-1.2-2.4-1.6-4.3-1.1-1.5.4-3.1.7-4.9.6-.8 0-1.7 0-2.5-.1-.9-.1-1.8-.3-2.7-.4-.4-.1-.8-.1-1.2-.2-.1 0-.6-.1-.8-.2-.3-.1-.5-.2-.8-.3-1.5-.4-2.6-.4-4 .1-.3.1-.6.3-.9.5.8-.2 1.5-.3 2.3-.3zM84.7 375.5c.4.5.9.9 1.4 1.4.2.2.4.3.6.5.7.6 1.6.8 2.5 1.1.3.1.6.1.8.2l-1-4.7c-1.5-.6-3.2-.9-4.9-1.2-.5-.1-1-.2-1.4-.2.1.2.2.3.3.5.5.8 1.1 1.6 1.7 2.4zM138.9 389.2c.9-.1 1.9-.2 2.8-.2h1.1c1.3.1 2.7.4 3.5 1.7v.2c0 .8-.1 1.7-.6 2.3-.8 1-1.6 2.1-2.5 2.9-.1.1-1.2 1-1.3 1.1 4.1-1.9 5.6-5.2 5.7-6.2-.1-2.4-2.4-3.2-4.2-3.1-.4 0-.7.1-1.1.2-.2 0-.3.1-.5.1-.4.1-.8.1-1.2.2-.9.2-1.9.3-2.9.4-1.5.1-3.1.2-4.6.1-.9 0-1.8-.2-2.6-.3-.3-.1-.6-.1-1-.2l-.7-.1c-.8-.1-1.5-.2-2.3-.4-2.1-.5-3.9-.8-5.7-.6-1.3.1-2.4.7-3 1.5-.5.8-.6 1.8-.2 3 .4 1.2 2.7 5 6.6 6.2-1.7-1-3.3-2.6-4-3.5-.2-.3-.5-.6-.7-.8-.8-1.1-1.2-2.3-1.1-3.3.5-1.7 1.5-2 2.6-2.3.6-.1 1.3-.1 1.9 0l3 .6 3 .6c.8.1 1.6.2 2.3.3.3 0 .5.1.8.1 1.4.2 2.8-.1 4.1-.3.8-.1 1.5-.3 2.3-.3l.5.1z"/>
    <path class="st0" d="M127.6 399.2c-1.1-.1-2.2-.1-3.2-.1-1.2-.1-2.5-.1-3.7-.2-.3 0-.5-.1-.7-.1h-.2c-1.1-.2-2.3-.6-3.6-1.4-.6-.3-1.2-.5-2-.5h-.5c-1 0-2 .1-3.1-.5-1.3-1.1-2.4-2.4-3.3-3.8l-.5-.7c-.4-.6-.7-1.2-1.1-1.8-1.6-2.4-2.4-5.2-2.8-7.6-.2-.9-.5-2.1-1-3.1-.9-1.9-2.3-3.4-3.5-4.7-.4-.4-.7-.7-1.1-1-.6-.5-1.2-.9-1.7-1.3-.6-.4-1.2-.9-1.8-1.4.6.7 1.3 1.4 1.9 2.1.7.8 1.2 1.6 1.7 2.4 1 1.6 1.7 3.5 2.4 5.9l.1.3c.3 1 .6 2 .3 3.1 0 .1-.1.2-.3.2h-.7c-.2-.1-.3-.2-.4-.3l-.1-.1c-.8-.5-1.6-.9-2.3-1.4l-1.1-.6c-1.9-1.1-4.4-2.5-7.3-3.1-1.3-.3-2.3-1.1-3-1.9-.6-.6-1.1-1.3-1.6-2l-.4-.5-.9-1.2c-.1 1.6 0 3.1.7 4.4.2 0 .4.1.5.1.5.1.9.2 1.3.3 1.2.4 2.5 1 3.5 1.4.3.2.6.4.6.7.1.3 0 .6-.3.9-.1.1-.3.2-.4.1-1.3-.9-2.8-1.6-4.8-2-.9-.2-1.7-.6-2.5-.9-.2-.1-.5-.2-.8-.3-.2-.1-.5-.2-.7-.3.3.5.7.9 1.1 1.2.8.6 1.7 1.1 2.6 1.6l.3.2c.6.3 1.1.6 1.7.9.9.4 1.8.9 2.6 1.4 1.8 1.1 3.5 2.5 5.1 3.7 2.3 1.9 4.8 3.7 6.6 5l.3.2c1.1.8 2.3 1.7 3.8 1.8h.3c.3 0 .6 0 .9.1h.2c.7.2 1.4.4 2.1.7.4.2.7.4 1.1.7.4.3.8.6 1.3.7.4.1.7.3 1.1.5.9.4 1.8.8 2.7.7.8-.1 1.6.1 2.3.3 1.5.4 3.1.8 4.6 1.4 1.1.4 2.1.9 2.9 1.5.9.7 1.6 1.2 2.5 1.3.2 0 .5.1.7.1.2 0 .4.1.5.1.3 0 .5.1.8.1v-.6c-.1-.9-.1-1.8.3-2.7.1 0 0 0 0 0zM62.2 347c-.6-1.9-1.2-3.9-1.8-5.8-.1-.4-.2-.8-.4-1.2-.3-.8-.6-1.7-.8-2.6l-.9 3.3c-.1.3-.2.6-.4.9-.2.3-.3.6-.4.9-.5 2-.9 3.8-.4 5.7.3 1.4.9 2.5 1.7 3.5.3.3.6.7.9 1 .7.8 1.4 1.7 2.1 2.8 0-.2.1-.4.1-.5.2-1 .3-1.8.3-2.7.1-1.1 0-2.2 0-3.2v-1.4-.7zM27.1 199.9l-.2.2c-1.7 1.3-3.4 2.6-4.8 4.3-.8.9-1.5 1.8-2.2 2.7-.6.8-1.3 1.7-2 2.5-.3.3-.5.7-.7 1.1.2-.1.4-.1.6-.2 3.2-1.4 5.8-3.7 7.7-5.5.9-.9 1.9-1.8 2.8-2.7 1.3-1.3 2.7-2.6 4.1-3.9 1-.9 2.1-1.5 3.2-2.2l1.8-.9c-.9.2-1.8.4-2.7.7-2.7.8-5.3 2.1-7.6 3.9zM55.8 338.3c-.4-.3-.7-.7-1.1-1l-.9-.9c-.4-.4-.8-.7-1.1-1.2-.3-.3-.5-.6-.7-.9-.2-.2-.4-.5-.6-.7-.1-.2-.3-.4-.4-.5-.1-.2-.2-.3-.3-.4.9 2.9 1.6 5.9 2.2 8.8.4 1.8.8 3.7 1.3 5.5l1.5 1.1v-.4-2.1c-.1-1.2.3-2.3.7-3.4.1-.2.2-.5.2-.7.2-.5.4-1 .5-1.5l.1-.3-.4-.4c-.3-.4-.7-.7-1-1z"/>
    <path class="st0" d="M66.7 373.6c1.2 1.4 2.5 2.4 4.1 3 .2.1.3.2.5.2 0 0 .1.1.2.1s.1.1.1.1c.7 1.6 2 2.6 3.4 3.5.1.1.3.2.4.3-.1-1.1-.2-1.5-.5-1.8-.4-.5-.9-1-1.3-1.5-.9-1.1-1.9-2.2-2.9-3.2h.1c-1.4-1.6-.5-2.9.5-4.1.9-1.1 1.6-.5 2.4.1-.2-.2-.4-.4-.5-.7-.6-1.3 0-2.9 1.4-3.5-.9.1-1.5.7-2.1 1.6-1 1.6-2.2 3.2-3.3 4.9-1.4-1.7-2.2-3.9-2.3-6.5 0-.7.1-1.5.1-2.2 0-.3.1-.7.1-1 0-.4.1-.8.1-1.2 0-.9.1-1.8.3-2.7.3-1.9.5-3.8.5-5.9 0-1.9-.4-3.4-1.2-4.7-.5-.7-.9-1.3-1.3-1.8-1.6-2.1-3.3-4.6-4.5-7.4.2.5.3 1.1.5 1.6.3.8.5 1.6.8 2.5l.3.9c.3 1 .6 2.1.7 3.1.2 3.1.1 5.6-.5 7.8-.1.4-.1.8-.2 1.3 0 .2 0 .4-.1.6l.4.9c.1.2 0 .3-.1.4l-.5.2c-.1.1-.3 0-.4-.1l-3.7-5.5c-1.5-2.2-2.8-3.7-4.3-4.8-1.1-.8-2.2-1.6-3.3-2.3-.7-.5-1.4-.9-2.2-1.4-1.1-.8-2.4-1.4-3.7-1.9-.4-.2-.8-.4-1.2-.5-.6-.3-1.2-.5-1.8-.8-1.3-.5-2.7-1.1-3.9-2l.7 2.7 3.5 3.9.1.1c.1.2.1.4.2.6.1.4.2.7.4 1l.6.9c.1.2.3.4.4.5.1.2.3.4.4.6.4.6.8 1.1 1.2 1.7l1.5 3c.5 1 1 2.1 1.6 3.1.7 1.2 1.4 2.4 2.2 3.6 1.4 2.1 3.4 3.8 5.1 5.1 2 1.5 4.2 2.9 6.7 4.3 1.6 1 3.1 1.9 4.3 3.3z"/>
    <path class="st0" d="M48 342.7l4.7 3.2-.3-1.1c-.7-3.3-1.4-6.5-2.4-9.6-.1 2.5-.7 5-2 7.5zM11.8 176.4c1.5 0 2.7-1.2 2.7-2.7 0-1.5-1.2-2.7-2.7-2.7-1.5 0-2.7 1.2-2.7 2.7 0 1.5 1.2 2.7 2.7 2.7zM208.2 129.3c.4.5.9 1 1.4 1.4.3.3.7.6 1 1 .7.7 1.5 1 2.7 1.1h1.9c.9 0 1.8.2 2.5.7 1.3.8 2.7 1.2 4.3 1 .2 0 .5-.1.7-.1.3-.1.7-.1 1.1-.1.5 0 1 0 1.4.1-1.2-.3-2.5-.6-3.7-.7-.7-.1-1.4-.3-2.1-.6l-.2-.1c-1.8-.7-3-2.1-4.2-3.4l-.3-.3c-.7-.7-1.3-1.2-2.2-1.4-.9.5-1.9.1-2.7-.2h-.1c-.3-.2-.6-.5-.9-.8-.5-.5-1-1-1.7-1.2-.5.2-.9.3-1.4.4-.5.1-.9.2-1.4.4 1.6.6 2.8 1.7 3.9 2.8zM242.4 148.4c-.7.8-1.5 1.7-2.1 2.7-.4.6-.7 1.4-.7 2.2 0 .3-.1.5-.2.6 0 .1-.1.1-.1.2 1.6 2.2 2.8 4.8 3.7 8.2 0-.1.1-.3.1-.4.5-2.1 1.1-4.2 2-6.1.6-1.3 1.1-2.6 1.7-3.9.8-1.7 1.6-3.6 2.3-5.3.7-1.6 1.2-3.3 1.7-4.8.1-.4.2-.9.3-1.4l-1.3 1.7-.4.4c-.3.2-.5.5-.8.7-2.5 1.5-4.5 3.3-6.2 5.2zM228.9 151l.7 1.8c.2.2.7.3 1.3.3.8 0 1.7.1 2.5.3l1.5.3 1.2.3c.7.2 1.4.4 2 .9-.3-.4-.6-.7-1-.9-.3-.2-.5-.4-.8-.5l-.9-.6c-.2-.2-.5-.4-.8-.5-.7-.5-1.4-1-2-1.6-2.3-2.6-4.2-4.5-6.2-6.1l.1.2c.3.8.6 1.6 1 2.5.4 1 .9 2.2 1.4 3.6zM225.1 134.3v.1z"/>
    <path class="st0" d="M204.9 124.9l.4-.1c2.1-.7 3.4-.2 4.7 1.7l.1.1.1.1c.4.1.8.1 1.2.1h1.2c.9 0 1.7.4 2.4 1.2l1.2 1.2 1.2 1.2c1 1.1 2.3 1.7 4.1 2.1 1.6.3 3.3.6 4.9 1-.2-.3-.5-.5-.8-.7-1.2-.7-2.4-1.4-3.5-1.9-2.4-1.2-4.1-2.8-5.2-4.7-1.1-2.1-1.5-4-1.3-6h-1.1c-1.5 0-3 .3-4.6 1-.9.4-1.8.9-2.7 1.4-.3.2-.6.4-.9.5-.3.1-.5.3-.8.5-.1.1-.2.2-.4.2h-.1c-1.2.4-2.3 1.1-3.4 2.2.6 0 1.2-.1 1.7-.3.6-.5 1.1-.7 1.6-.8zM207.5 106.2h1.3c-.2-.1-.3-.1-.5-.1-.3-.1-.6-.1-.9-.3-2.5-1.1-5.2-1-7.8-.9h-.7c-1.1 0-2.2.2-3.3.3-.5.1-1.1.1-1.6.2-.7.1-1.4.1-2.2.2h-.2c.7.3 1.3.6 1.8 1 .6.3 1.1.7 1.7 1.1.5.4 1.1.8 1.7 1.1 1.6 1 3.1 1.1 4.4.3.8-.5 1.6-1 2.3-1.5 1.1-.8 2.4-1.6 4-1.4zM237.2 133.5c-.2 1.6 1 3 2.6 3.2 1.6.2 3-1 3.2-2.6.2-1.6-1-3-2.6-3.2-1.6-.1-3 1-3.2 2.6z"/>
    <path class="st0" d="M211 81.7c.1.7.2 1.3.3 2l.1.5c.1.7.1 1.5.2 2.2.1 1.2.2 2.3.4 3.5l.3 1.5c.1.5.2.9.2 1.4.1.9.3 2.1.3 3.3.1 1.8.5 3.6 1.2 5.7.1.2.1.4.2.6.2.6.4 1.2.8 1.6.1.1.3.3.3.6.4 2.7 1.6 5.1 2.8 7.4l.1.1c.3.6.5 1.1.8 1.7.2.5.5 1.1.7 1.6 1.4 2.9 3 6 5 8.9.5.8 1.1 1.6 1.7 2.4.8 1.1 1.6 2.2 2.3 3.3 1.5 2.2 2.3 4.3 2.4 6.6 0 .6 1.1 3.3 1.4 3.8.1.1.2.3.3.4v-.3c0-.1 0-.2-.1-.3v-.1c-.1-1-.2-2-.3-2.9v-.2-1.1-.8c.3-1 1.4-1.5 2.5-1.9 1.1-.4 1.5.1 1.8.8 0-.2-.1-.4-.1-.7.1-1 .7-1.8 1.6-2.2-.4.1-.7.3-1.1.5-1.6.8-3.3 1.6-4.9 2.4v-.1-.2c.1-.3.2-.6.2-.9.1-.6.2-1.2.6-1.7.6-.8 1.2-1.7 1.7-2.6l.4-.6c.7-1.1 1.2-2.4 1.6-4.1.6-2.4.9-4.6.9-6.6.1-2.4-.5-4.7-1.2-6.8-.7-2.2-1-3.9-1-5.6 0-.3-.1-.6-.1-1l-.1.3c-.3 1-.6 1.9-.8 2.9l-.1.3c-.1.5-.3.9-.5 1.3-1 1.7-1.4 3.6-1.8 5.4l-.2.8c-.2.8-.3 1.7-.5 2.5l-.2.9c0 .3-.1.6-.2.8-.1.7-.3 1.5-.3 2.2 0 .5 0 1 .1 1.5 0 .2.1.3.1.5.2 1.2.4 2.5.6 3.9 0 .1.1.3.1.4.1.4.2.9.1 1.4 0 .1-.1.2-.2.3-.1 0-.3 0-.3-.1l-1.1-1.8v-.1c-.2-2-.5-4.7-1.8-7l-.3-.6c-.5-1-1.1-2-1.9-2.8-.6-.6-1-1.2-1.5-1.9-.3-.4-.5-.7-.8-1.1-.9-1.1-1.8-2.1-2.7-3.1-.6-.6-1.1-1.2-1.7-1.9-1.2-1.4-2.5-2.9-3.2-4.8-.4-1.2-.7-2.5-1-3.8l-.1-.4c-.2-.7-.2-1-.4-2 .2-1.5.7-2.3 1.2-3.1.6-.9 1.1-1.1 1.6-1.1-.2-.2-.3-.5-.4-.7-.1-.4-.2-.8-.1-1.1-.1.1-.1.3-.2.4-1 2-1.3 1.7-2.2 3.7V95v-1.2c0-.9-.1-1.9.1-2.8.4-3.1-.5-6.1-1.4-9l-.1-.3c-.5-1.8-1.3-3.5-2.4-5.3-.4-.6-.8-1.3-1.5-1.9l.4 1.6c.6 1.7 1 3.6 1.4 5.6zM233.2 142.2h-.4c-2-.2-4-.7-5.9-1.2l-1.2-.3c-.5-.1-1.1-.4-1.6-.7h-.1c.1.2.3.3.4.5.6.8 1.3 1.6 2 2.4.5.5 1 1 1.5 1.4.4.3.8.7 1.1 1l.4.4c.9.9 1.8 1.7 2.7 2.7.8.9 1.7 1.6 2.6 2.3l1.5 1.2c.4.3.9.6 1.4.8.1.1.3.2.4.2.1-.2.1-.4.2-.5.1-.2.2-.5.3-.7.2-.6.5-1.3.8-1.8.6-.8 1.3-1.6 2-2.3l.5-.5 1.5-1.5.5-.5c-2-1.2-3.8-1.9-5.6-2.2-1.6-.5-3.3-.6-5-.7z"/>
    <path class="st0" d="M221.7 94.1c1.5-.5 2.4-2.1 1.9-3.6s-2.1-2.4-3.6-1.9-2.4 2.1-1.9 3.6c.4 1.5 2 2.4 3.6 1.9zM38.1 284.4c-.4.4-.7.9-1.1 1.2-1.9 1.8-3.2 4.1-4.5 6.3l-.2.4c-.1.2-.2.6-.3.9l-.1.7c-.2.9-.3 1.9-.4 2.8-.2 2.8.1 5.7 1 9.2l.9 3.3c.1.2.1.4.2.6l.3-.9.1-.3.3-1.2.1-.4c.3-1.2.5-2.5 1.1-3.6.7-1.6 1.3-3 1-4.5-.2-1.1-.2-2.3-.2-3.3v-1.3c0-.3.1-.6.1-.9 0-.2.1-.4.1-.6 0-.7.3-1.3.6-1.9.2-.4.4-.8.5-1.2.2-.6.4-1.2.6-1.9.3-.9.6-1.9.8-2.9.2-1 .6-1.9 1.1-2.6-.3.2-.5.4-.7.7-.6.6-.9 1-1.3 1.4zM229.8 119.8v-.1-.7c0-.3 0-.7.1-1 .3-1.7.5-3.1.8-4.3l.1-.4c.4-1.8.8-3.6 1.6-5.3.3-.6.5-1.4.8-2v-.1l-.2.2-.1.1c-.4.4-.8.8-1.2 1.3-1 1.1-2.1 2.2-3.2 3.2-.8.7-1.8 1.7-2.4 3-.1.2-.1.4-.1.6.1 0 .1.1.1.1l3.7 5.4zM255.2 182.8l1.8 3.2c0-1.9.2-3.8.8-5.9.1-.3.1-.6.2-.9-1.2 1-2.2 2.1-2.8 3.6zM253 262.9l.2-.1c1.1-.7 2.3-1.5 3.1-2.6 1.7-2.4 2.9-4.3 3.9-6.1 1.8-3.3 3.5-6.6 5-9.8l.3-.6c.8-1.7 1.7-3.4 2.8-5-.5.3-1.1.7-1.6 1.1-.9.6-1.7 1.1-2.6 1.7-1 .6-2 1.3-3 1.9l-4.8 3c-2.9 1.9-4.5 4.1-4.9 6.8 0 .2-.2.5-.3.7-.1.1-.2.3-.3.4l-.2.2h-.1c-.1 0-.2-.1-.3-.2-.1-.1-.1-.3-.2-.4-.1-.2-.2-.4-.2-.6v-.4c-.1-1.8-.3-3.7-.4-5.6-.1-1.5.2-3.2.9-4.9.6-1.6 1.2-3.2 1.7-4.8.2-.5.3-1.1.5-1.6.2-.6.4-1.2.5-1.8.2-1.1.5-2.2.7-3.3l.4-1.8c.1-.3.1-.5.2-.8-.6 1-1.2 2.1-1.7 3.1l-.7 1.2c-.6 1-1.1 2-1.7 3-.5 1-1.1 1.9-1.6 2.9-.1.2-.2.4-.2.6 0 .1-.1.2-.1.3 0 0 0 .1-.1.1l-.3.3c-.2.1-.3.2-.4.4-1 1.6-2.1 3.5-2.7 5.5-.1.2-.1.4-.2.6-.1.3-.3.6-.3.9-.1 2.5.5 4.6 1.9 6.4 1.7 2.3 2.5 4.4 2.3 6.7 0 .3-.1.6-.1.9-.1.6-.2 1.2 0 1.8.1.2 0 .5-.1.7l-.1.2c0 .1-.1.3-.1.4-.1.3-.2.5-.2.7-.2 1.4-.6 2.7-1.1 4.1-1.8-1-3.7-1.8-5.6-2.7-.1 0-.1-.1-.2-.1.4.4.7 1 .8 1.6 0 .2 0 .5-.1.7.3-.6.7-1.1 1.7-.7 1.5.5 3 1.2 2.5 3.3h.1c-.2.6-.4 1.3-.5 2.2-.1.7-.1 1.5-.1 2.2 0 .8 0 1.7-.1 2.6-.2 1.6-.8 2.9-1.4 4l-.9 1.5c-.5.8-1 1.7-1.4 2.6-.4.8-.7 1.6-.9 2.6.2-.2.4-.3.6-.5l.8-.6.4-1.7c.6-1.9 1.7-3.6 2.7-5.2l.2-.3c.5-.8 1.1-1.5 1.9-2 1.4-1 2.1-2.4 1.8-3.9-.1-.6-.2-1.3-.4-1.9-.2-.9-.4-1.9-.5-2.8-.3-2 .1-3.6 1.4-5.1 1.2-.6 2.3-1.3 3.4-2zM25.7 234.1c.5-.7.9-1.5 1.4-2.2.3-.6.6-1.1.9-1.8 0 0 .1-.2.1-.3l-.6.2c-1.2.4-2.4.7-3.5 1.1-.3.1-.7.2-1 .5-.6.6-1.3 1.2-1.9 1.8l-.6.6c.1.2.1.4.2.5.1.5.2.9.4 1.2.5 1.2 1 2.4 1.5 3.5l.3.8c.1.3.3.6.4.8.3.6.6 1.2.8 1.9.1.6.3 1.2.4 1.8.3 1.3.6 2.6.5 4v.4c.4 1 .4 2.1 0 3.1.5-1.7.8-3.6.7-5.6 0-.2-.1-.4-.1-.6-.1-.2-.1-.5-.1-.8 0-1.1-.3-2.2-.6-3.2l-.2-.7c-.2-.9-.5-1.8-.6-2.7-.2-1.1 0-2.2.6-3.1.4-.2.7-.7 1-1.2z"/>
    <path class="st0" d="M258.4 235.6c0-.4-.1-.8-.2-1.2v-.2c-.4-1.8-1.1-3.5-1.9-5.2l-.3-.6c0-.1-.1-.2-.1-.3-.1.2-.1.4-.2.6-.2.9-.4 1.7-.6 2.5-.3 2-.7 3.8-1.3 5.5-.8 2.4-1.5 4.5-2.3 6.5-.8 2-.7 4.1-.6 6.3v.5c.7-1.4 1.6-2.6 2.7-3.4 1.1-.9 2.2-1.7 3.3-2.5.5-.3.9-.7 1.4-1-.1-.5 0-1 0-1.6 0-.5.1-1 0-1.6-.1-1-.1-1.9-.1-2.9.2-.3.2-.8.2-1.4zM31.2 245.9c.8-1.3 1.6-2.4 2.4-3.7.7-1.2 1.5-3 2.3-4.5l.6-1.2-.1.1c-1.9.8-3.9 2.8-5.7 5.7.3 1.2.4 2.6.2 4.1 0-.1.2-.3.3-.5zM266.6 229.4c-3.2 3.2-5.4 9.7-5.3 12.3l5.6-3.4-.3-2.2c0-.2-.1-.5-.1-.7-.1-.6-.1-1.2-.2-1.7v-1.1-1.3c0-.4.1-.7.2-1.1 0-.3.1-.6.1-.8zM25 252.3c0 .1 0 .3-.1.5.1-.2.1-.4.1-.5z"/>
    <path class="st0" d="M260.3 234.5c-.2.4-.3.9-.3 1.4v.4c-.3 1.6-.5 3.2-.1 4.7 0 .2 0 .3-.1.4-.1.4-.1.9-.1 1.3l.2-.1v-.5c0-.5.1-.9.1-1.3.3-1.2.6-2.3.9-3.6.7-2.6 1.8-4.9 3.3-6.9l1.2-1.6c-2.3 1.4-4 3.4-5.1 5.8zM256.1 209.6l-.7 1.3c-.1.1-.2.2-.3.2l-.5-.1c-.1 0-.1-.1-.2-.1 0-.1-.1-.1 0-.2v-.1c0-.2 0-.3.1-.4l.6-1.2c.4-.8.8-1.6 1.2-2.5 1.2-3.1 1.5-6.6 1.7-9.5v-2.1-1.4c0-2.3-1-4.4-1.9-6.3-.5-1.1-1.2-2.2-1.8-3.3-.4-.7-.9-1.5-1.3-2.2-.6-1.1-1.1-2.1-1.7-3.3l-.3-.6v.2c.1 2.2.2 4.3.3 6.4.1 1.3.1 2.6.2 3.9l.1 2v.1c.1.4.2.9.3 1.3.2 1 .5 2 .8 3 .8 2.6 1.1 4.7 1.1 6.6v3.2c0 2.1.1 4.3-.3 6.5-.1.6-.1 1.2-.1 1.7 0 .7-.1 1.5-.2 2.3-.2 1.1-.1 2.1.1 3.2.1.4.1.7.2 1.1.1.5.1 1.1 0 1.6-.1 1-.3 2.3-.7 3.5-.4 1.5-.6 3.1-.3 4.8l.9-1.8-.3-1.3v-.2l.3-.8c.2-.5.3-1 .5-1.4.7-1.9 1-3.7.9-5.5v-.4c0-.9-.1-1.8 0-2.7.1-1.1.3-2.1.7-3 .6-1.2 1.5-2.2 2.3-3.2l.1-.1c.5-.6 1.1-1.3 1.7-1.8.5-.5.9-1 1.3-1.5 1.2-1.4 2-2.9 2.5-4.6.5-1.8 1.1-3.7 1.5-5.6.4-1.6.7-3.3 1.1-5l.2-1.1c.2-.9.3-1.8.5-2.7l.3-1.8-.3.6c-.4.8-.9 1.7-1.4 2.4-2.2 3.2-3.6 6.8-4.3 11-.3 1.9-.8 4-2 6-.2.3-.4.5-.5.8-.3.4-.5.8-.7 1.2-.6.8-1.2 1.8-1.7 2.9zM251.6 171.8c0 1.6 1.3 2.9 2.9 2.9 1.6 0 2.9-1.3 2.9-2.9 0-1.6-1.3-2.9-2.9-2.9-1.6 0-2.9 1.3-2.9 2.9zM206 88c1.3 1.2 2 2.7 2.8 4.1l.2.5c.9 1.7 1.7 3.5 2.5 5.3.1.3.2.5.4.8l-.3-2.1c-.1-.4-.1-.9-.1-1.3s-.1-.8-.1-1.2c-.1-.5-.1-.9-.2-1.4-.1-.6-.2-1.1-.3-1.7-.1-.5-.1-1.1-.2-1.6 0-.5-.1-1-.2-1.6-.1-.8-.2-1.6-.4-2.3l-.2-1c0-.3-.1-.6-.1-.9-.1-.7-.2-1.3-.3-2l-.6-3c-.1-.5-.2-1.1-.3-1.6 0-.2-.1-.4-.1-.6-.1-.3-.1-.6-.2-.9-.1-.2-.1-.4-.2-.7-.4 2.6-1.2 5.3-2.2 8-.1.2-.1.4-.2.5-.3.9-.6 1.8-1.3 2.5 0 0-.1.2-.1.3v.1l.5.5c.4.4.8.9 1.2 1.3z"/>
    <path class="st0" d="M258.5 187.2c0 .4 0 .6.2.9.6-.9 1.4-1.5 2.2-2.1.5-.3.9-.7 1.3-1.1-1.4-1.5-2.2-3.4-2.7-5.2v.1c-.2.7-.4 1.4-.6 2-.3 1.5-.3 3-.3 4.5l-.1.9zM259.7 189.1l-.6 1.2c0 .1-.1.2-.1.2 0 .4.1.7.1 1 .1.7.2 1.4.2 2 .1 1.7 0 3.5-.3 5.3-.1.6-.2 1.2-.2 1.8-.1.5-.1 1-.2 1.5.5-1.2.7-2.4.9-3.7.1-.4.2-.9.2-1.3.6-3.1 1.6-5.8 2.9-8.1.8-1.5 1.7-2.9 2.6-4.3.3-.4.5-.8.8-1.2l-.1.1c-1.1.9-2.2 1.8-3.2 2.6-.2.2-.4.3-.6.5-1 .8-1.8 1.4-2.4 2.4zM252.5 139.7v.2c-.4 2-.8 4.1-1.6 6-.1.3-.3.6-.4.9-.1.3-.3.7-.4 1-.2.5-.5 1.1-.7 1.6-.4.8-.7 1.6-1.1 2.4l-.9 2.1-.4 1v.1c-.1.1-.2.3-.3.4-.2.3-.4.6-.5.8l-.1.2c-.6 1.5-1.2 3.1-1.6 4.6-.5 1.8-1 3.4-.9 5.2v.5c0 .1 0 .2-.1.4 0 .1-.1.2-.2.3-.1 0-.3 0-.3-.1-.1-.1-.2-.3-.2-.4l-.3-.6-.2-.8c-.5-2-1.1-4-2.1-5.9-.7-1.4-1.9-2.5-3-3.5-.3-.3-.8-.5-1.2-.6-2.7-.6-4.8-1-6.7-1.2-1.5-.1-3.1.2-4.7.8-1.6.7-3.4 1.3-5.4 1.1-.7-.1-1.5 0-2.2 0h-.6c.1.1.2.2.4.2.2.1.4.3.6.4.5.3 1 .6 1.3 1.1.5.7 1.1 1.2 1.7 1.7.3.3.6.5.9.8 1.7.8 3.3.8 5.1.7 1.3-.1 2.5.2 3.9.6l.9.3c.5.2.9.3 1.4.4 1.9.4 3.7 1.1 5.4 2.4 1.9 1.4 3.3 2.9 4.3 4.5.6 1 1.1 2.1 1.1 3.6-.1 1.1.4 2.2.8 3.2l.1.1c.7 1.6 1.9 2.9 3.1 4l1-2.4-1.3-2.4c-.6-2 .7-2.8 2.2-3.5.9-.4 1.3-.1 1.7.3 0-.2-.1-.3-.1-.5 0-.6.2-1.2.6-1.7l-.1.1c-1.7 1.1-3.5 2.1-5.2 3.3-.4-1-.7-2-.8-3.3-.3-2.4.2-4.6 1.3-6.6 1.3-2.3 2.6-4.7 3.9-7.2 1.4-2.8 2.2-5.6 2.3-8.3.1-1 .1-2.1.1-3.1 0-1.5 0-3.1.2-4.7.1-.5-.1-.3-.1-.8s-.6-1-.6-1c0 .1 0 .3.1.4-.1.2 0 .5-.1.9zM18.8 161.3v-6.5c0-.4-.1-.9-.3-1.3-.2-.5-.5-1-.8-1.5-.1-.3-.3-.5-.4-.8-.1-.2-.2-.3-.3-.5-.2-.4-.5-.9-.6-1.3-.6-2.3-.9-4.1-1-5.8-.1.8-.2 1.6-.2 2.5-.2 5.2 1 10.3 3.6 16.1v-.9zM189.7 104.7c1.3-.3 2.6-.6 3.9-.7 1.1-.1 2.2-.1 3.3-.2.6 0 1.2-.1 1.8-.1h.4c1.7-.5 3.5-.3 5-.1 1.6.2 3.3.7 5.1 1.4 1.1.5 2.5 1.1 3.4 2.5.5.7 1 1.3 1.5 1.6 1.2.9 1.3 1.3 1.8 2.6 0 .1.3.7.3.8l.1.5c.1.4.2.7.3 1.1.2 1 .5 1.9.6 2.8.1.7.1 1.4 0 1.9-.4 1.7-.3 3.4.3 5.1.5 1.4 1.3 2.6 2.5 3.7 1 .9 2.1 1.6 3.3 2.1 1.1.5 2.1 1.1 3.1 1.7 1.1.7 1.7 1.7 1.8 3.2 0 .2-.1.3-.2.3h-.2c-.1 0-.3.1-.5 0-.1-.1-.2-.1-.4-.1.5.5.6 1.2.7 1.8v.2c.1.9.4 1.8 1.1 2.4.2.2.3.4.4.7 0 0 .1.1.1.2l2 .4c-.2-.3-.3-.6-.5-1-.1-.2-.2-.4-.3-.7-.3-.7-.6-1.3-.6-2-.2-2.4-1.3-4.4-2.4-6.3-.8-1.4-1.8-2.7-2.7-3.9-1.2-1.6-2.4-3.3-3.3-5.1-.3-.6-.6-1.1-.9-1.7-.7-1.2-1.3-2.5-2-3.7-.3-.7-.6-1.3-.9-2-.3-.7-.6-1.4-1-2.1-1.2-2.3-2-4.1-2.5-5.9-.4-1.2-.9-2.3-1.5-3.4l-.2-.5c-.6-1.2-1.3-2.5-1.9-3.7-.9-1.7-1.8-3.5-2.7-5.2-1.1-2.2-2.2-3.9-3.6-5.3-1-1-2.1-1.5-3.8-1.6h-.5c-.9 0-1.9-.1-2.8-.3-.9-.2-1.8-.2-2.7-.2H193l.7.7c1.4 1.2 2.8 2.3 4.2 3.5l1.2 1c.1.1.3.2.4.4 1.8 1.2 3.2 2.7 4.6 4.2.3.3.5.6.8.8.6.6 1.1 1.2 1.6 1.8.5.6 1.1 1.3 1.7 1.9.6.6 1.3 1.2 2 1.8.4.3.8.7 1.2 1l.2.2c.4.3.8.6.8 1.4 0 .1-.1.2-.1.2-.2.1-.3.1-.4.1-.8-.4-1.6-.8-2.4-1.1-1.9-.9-3.7-1.7-5.4-2.6-1.8-1-3.6-2-5.2-3.1-.7-.4-1.4-.8-2-1.2l-.3.1c-.3.1-.6.3-.9.4l-.1.1c-.4.2-.7.3-1.1.5-1.2.7-2.2 1.7-3 3-1 1.6-2.2 2.8-3.7 3.7-.2.1-.3.2-.5.3.4-.1.8-.1 1.3-.2.4 0 .8-.1 1.1-.1z"/>
    <path class="st0" d="M16.7 144c0 .7.1 1.5.2 2.2.3 2.1.8 3.6 1.7 4.9 1.1 1.6 1.5 3.1 1.4 4.6-.1 1-.1 2.1 0 3.1V160.7c0 1.1 0 2.2.3 3.3.3 1.1.6 2.1 1.1 3l.3-5.8c0-.2 0-.4.1-.6l.5-3.3c0-.3.1-.6.1-.8.1-.6.2-1.3.3-1.9.3-1.3.7-2.5 1.1-3.8.1-.5.3-1 .4-1.5l-.2-.4c-.3-.5-.5-1-.8-1.6-.7-1.3-1.3-2.6-1.9-3.9-.1-.3-.2-.5-.3-.8-.3-.7-.5-1.4-1-2-1.3-1.6-2.3-3.5-3.1-5.6 0 .1-.1.3-.1.4 0 .7-.1 1.4-.3 2-.2 1-.4 1.9-.2 2.9.2 1.3.3 2.6.4 3.7zM30 185.5c-.7.4-1.6.8-2.5.7-.8-.1-1.5.3-2.2.8l.3.6c.6 1.3 1.3 2.7 1.4 4.4l.2-.2c.4-.6.8-1.2 1.2-1.7 1.6-2.1 3.1-4.2 5-6l.3-.3h-.1c-.7.3-1.3.7-2 1-.5.1-1 .4-1.6.7zM31.4 122.7c.1.7.2 1.3.5 1.9.2.4.4.9.5 1.3.7 1.8 1.5 3.6 2.5 5.2-.1-.7-.3-1.4-.4-2.1-.3-1.4-.6-2.8-.8-4.2-.2-1-.3-1.9-.3-2.8-.1-2.7.1-4.8.5-6.7.1-.6.3-1.2.3-1.8 0-1.2.3-2.3.5-3.4.2-1 .4-1.9.5-2.9 0-.6.1-1.1.2-1.7.1-.6.2-1.3.2-1.9 0-1.1-.1-2.2-.1-3.4v-.6l-.6 1.5c-.7 1.8-1.3 3.6-1.9 5.4-.3 1-.6 2.1-.8 3.2l-.2.3c-.2 1.1-.4 2.2-.6 3.4l-.1.6c-.2 1.1-.3 2.2-.4 3.2-.1 1.4-.1 2.8.2 4.2.1.4.2.9.3 1.3z"/>
    <path class="st0" d="M15.3 173.2c0 .2-.1.5-.1.7.5-.9.9-1.6 2.1-1 1.4.7 2.6 1.5 2.2 3.3 0 .1 0 .1-.1.1-.3.6-.5 1.3-.7 1.9l-.1.2c-.5 1.6-.4 3.3-.4 4.9v.1c0 .2.1.3.2.5.1.1.1.2.1.2.1.2.1.2.1.3l-.1.6c0 .2-.1.4-.1.5-.2 1-.4 1.9-1.1 2.8-1.4 1.9-2.4 4.1-3.2 6.1-.9 2.1-1.2 4.1-1.2 6.1V204.8c0 1 .1 2 .3 2.9l.1.5c.1.6.1 1.1.2 1.7l.3 2.7c.1.7 0 1.4 0 2.1 0 1.1 0 2.2.2 3.3.1.4 0 .8-.1 1.2 0 .1 0 .2-.1.3-.1.5-.2 1-.2 1.4-.1.8-.3 1.7-.4 2.5 0 .3 0 .7.1 1.1v.1c.2 1.2.8 2.3 1.5 3.4l.3.5c.1.2.3.4.4.6v-.2c-.2-.7-.3-1.3-.5-2-.5-1.6-.5-3.2.1-4.8.4-1 .4-1.9-.1-3-.6-1.4-.8-2.8-.8-4.3v-1.6c0-1.1 0-2.2.3-3.4.2-.7.3-1.3.3-2 .1-.4.1-.7.2-1.1.2-1 .3-1.9.5-2.9l1.1-6.4c.1-.8.3-1.6.4-2.4l.1-.7c.2-1.6.5-3.2.9-4.7 0-.1.1-.2.1-.2.1-.3.2-.6.1-.7-.2-.5 0-.9.1-1.3 0-.1.1-.1.1-.1.1-.3.2-.5.2-.7v-.1c.1-.3.2-.7.3-1.1.2-.9.5-1.8.9-2.7.8-1.7 1.2-3.4 1.4-5.2.1-1.3.4-3 1.4-4.5.3-.4.4-.9.5-1.4l.1-.6c.2-1.2.4-2.4.4-3.6.1-2.2.5-4.2 1-6.6.5-2 1.1-4.1 1.7-6 .6-1.7 1.2-3.3 2-4.8.8-1.3 1.7-2.6 2.6-3.8.3-.4.7-.9 1-1.3.8-1.2 1.9-2.7 2.5-4.5l.1-.2c.2-.6.4-1.1.3-1.8l-.2.2c-1.1 1.2-2.2 2.2-3.5 2.9-1.5.8-2.7 2.1-3.9 4-.4.7-.8 1.5-1.1 2.2-.1.3-.2.6-.4.9-1 2.2-1.7 4.6-2.4 7.8-.1.5-.1 1-.2 1.5 0 .4 0 .8-.1 1.3-.1.4-.1.7-.2 1.1-.1.7-.3 1.3-.3 2-.2 2.5-.2 4.9-.3 6.9v.6c0 1 0 2.1-.4 3v.1c-.2.2-.3.4-.5.6-.3.3-.6.7-.9.9-1.8-1.2-3.7-2.3-5.5-3.5-.7-.5-1.5-.6-2.3-.6 1.6.3 2.7 1.4 2.7 2.9zM35.4 113.8c-.1.6-.2 1.2-.2 1.9l-.1.8c-.1.4-.1.8-.2 1.2-.1.9-.2 1.7-.3 2.6-.2 1.5.2 3 .5 4.4.1.4.2.7.2 1.1.1.6.2 1.2.4 1.7.2 1 .4 1.9.6 2.9.1-.4.2-.9.2-1.3.3-2.7.8-4.7 1.4-6.5.3-.7.5-1.5.8-2.2.6-1.8 1.3-3.6 1.9-5.3.3-.7.4-1.4.3-2.2l-.3-1.8v-.2c-.6-3-2-5.5-3.7-8.2 0 .1 0 .2-.1.3-.1.8-.2 1.6-.3 2.3-.1 1.4-.3 2.7-.6 4l-.3 1.5c-.1.6-.2 1.3-.2 1.9v1.1zM5.6 241.2l2.4.4c-.2-1.5-1.4-4.3-2.8-6.4 0 .5.1.9.2 1.4.3 1.3.3 2.5.2 3.7v.9zM11.2 191c.1-3 .1-8 0-10.5l-.2.5c-.6 1.3-1.2 2.7-1.8 4.1-.6 1.2-.8 2.4-.6 3.4l2.6 2.5zM92.6 406.6l.3-.2c.4-.2.9-.4 1.3-.6l.9-.6c.2-.1.4-.2.6-.4.8-.5 1.7-1 2.5-1.5 1.1-.7 2.2-1.4 3.3-2l.3-.2c1.7-1 3.5-2 5.6-2.5 1.3-.3 2.3.2 3.1.7.3.2.5.4.7.6l.1.1c1.1 1.3 2.6 1.7 4.4 1.4 1.8-.3 3.5-.3 5.1 0h.3c-1.1-.7-2-1.2-3-1.3l-.4-.1c-1-.2-2-.3-2.9-.8-.2-.1-.5-.2-.8-.2-2.8 0-5.1-1.2-7.3-2.5-1-.6-2.2-1.2-3.6-1.2-.8 0-1.6-.2-2.4-.6-.8-.4-1.5-.9-2.2-1.4l-.4-.3c-1.7-1.3-3.3-2.4-4.8-3.6-.6-.5-1.2-1-1.8-1.4-.8-.6-1.6-1.3-2.4-1.9-1.9-1.4-3.9-2.6-5.9-3.5-1.4-.6-2.6-1.5-4-2.7-.6-.5-1.2-1-1.9-1.5-.1-.1-.3-.2-.4-.3 0 1.3.4 2.7 1 4v.1c.1.8.5 1.5.9 2.2.2.3.3.6.5 1 1.1 2.4 3 4.3 4.8 6l1.1 1.1c.4.4 1 .7 1.5 1 1.1.6 2.4 1.2 3.8 1.6.4.1.8.4 1.2.6.2.1.4.2.7.3.4.2.7.3 1.1.5.9.4 1.8.9 2.8 1.2 1.5.5 3.1.5 4.8.1.4-.1.8-.1 1.2-.1h.6c.1 0 .2 0 .2.1.1.1.1.2 0 .3l-.1.3c-.1.2-.1.3-.1.4-.1.2-.2.4-.3.5-.5.3-.9.6-1.4 1-1.2.9-2.5 1.8-4.1 2.1-.6.1-1.2.3-1.9.4-.9.2-1.8.5-2.7.6-2.7.3-5.4-.1-8-1.1-1.1-.4-2.2-.8-3.4-1.1-1.6-.4-2.9-.7-4.1-.8-1.5-.2-3.4-.2-4.9 1.1l-.2.1c-.2.1-.3.2-.4.4h.4c.8 0 1.4.3 2.1.5l.2.1c.6.2 1.3.5 1.9.8.8.3 1.6.7 2.5 1 .4.2.8.3 1.2.5 1 .4 1.4.8 2.5.9.4.2.9.2.9.2.9.6 1.7.7 2.7.9.3.1.6.1.9.2 2 .7 3.9.5 5.8-.5zM2.3 192.4c0 .4.1.9.1 1.3.1.8.1 1.6.2 2.4.3 1.8.7 3.8 1.1 5.9.2.9.5 2 1.3 2.9.5.6 1.1 1.3 1.6 2 .4.5.7.9 1.1 1.4.2.3.5.5.7.8.4.4.8.9 1.1 1.3.6.8 1.3 1.5 2 2.2l.2.2-.1-.3c-.3-.7-.5-1.5-.9-2.2-.2-.5-.5-.9-.7-1.4-.3-.6-.6-1.1-.9-1.7-1.1-2.6-2.2-5.3-2.9-8.2-.3-1.1-.6-2-1-2.9-1-2-2.1-4.3-2.9-6.9-.3.6-.3 1.2-.2 1.8.1.4.1.8.2 1.4z"/>
    <path class="st0" d="M5.5 193.7c.8 1.5 1.4 3.1 2 5.2.9 2.9 1.9 5.8 3.2 8.5.5 1 1 2 1.4 3 0-.6-.1-1.1-.2-1.6-.4-1.9-.5-3.4-.5-4.9v-2.1-2.1c0-1.9.3-3.5 1-4.8l.6-1.5c.1-.2.2-.4.2-.6.8-2.2 1.8-3.9 2.9-5.3v-.1c0-.2 0-.3.1-.5.4-1 .2-2-.6-3.3-.4-.6-.7-1.1-1-1.7-.3-.6-.7-1.2-1-1.7-.2-.4-.5-.8-.9-1.2 0 0 0-.1-.1-.1v13.5c0 .7-.4 1-1.2 1-.1 0-.2 0-.2-.1-.1-.1-.1-.2-.2-.3-.2-.3-.4-.6-.7-.8l-.3-.3c-.8-.8-1.7-1.6-2.6-2.3-1.7-1.3-3.5-2.9-4.8-5.3-.1.5-.1 1 0 1.6.8 3.1 1.7 5.6 2.9 7.8zM72.2 100.9l-4.5 2.1h1c2.2 0 4.3.3 6.5.6.4.1.8.1 1.2.1.6 0 1.2.1 1.8.2 1.4.3 2.8.2 4.2.2h1c-.6-.3-1.2-.5-1.8-.7-.5-.2-1-.4-1.5-.5-.9-.3-1.9-.6-2.8-1-1.7-.8-3.5-1.2-5.1-1zM40.1 193.8zM53.3 93c0 1.7.5 3.5 1.6 5.2.4.7.8 1.3 1.3 2l.1.2V84.2v-.3-.9l.6-3.6c-.3.6-.7 1.2-1 1.7-1.5 2.8-2.8 5.8-2.7 9.2v1.8c.1.3.1.6.1.9zM62.7 91.7c-.5 1-1 2-1.4 3.1-.5 1.4-1.1 3.1-1.2 5 .4-.4.8-.9 1.2-1.3l1.7-1.7c1.6-1.5 3.2-3.1 4.9-4.6 2.7-2.3 5.6-4.2 8.3-6-.3.1-.7.1-1 .1-.5 0-1 .1-1.5.1-.9 0-1.9.1-2.8.2-1.3.2-2.4.4-3.4 1-.5.3-1.1.6-1.6.8-.2.1-.5.2-.7.3l-.5.5c-.5.5-1.4 1.3-1.6 1.8l-.4.7zM39.2 233.7c0 36.5 9.1 70.8 25.7 96.7 17.3 26.9 41.2 41.8 67.3 41.8 53.9 0 93-58.2 93-138.5 0-67.1-32.6-138.5-93-138.5-61 0-93 69.7-93 138.5zm184 0c0 11.1-.8 21.7-2.3 31.8h.3-.2c-2.1-.1-4.2-.1-6.2-.3-6.4-.4-12.8-.7-19.2-1.2-3.8-.3-7.5-.9-11.3-1.3-5.3-.6-11.2-1.3-16.3-1.8-.5.4-3.9 31.6-3.9 32.8 0 .4 0 .8.4 1 0 0 3.3.9 4.4 1.1 7.4 1.5 14.9 3.3 22.3 4.8 6.3 1.2 12.7 2.2 19 3.3.3.1.6.1.9.1-15.3 40.3-43.9 65.8-79 65.8-25.5 0-48.9-14.5-65.7-40.9-5.1-8-9.2-17-12.9-26.5l11.4-2.4c4.2-.9 8.3-1.9 12.5-2.7 4.4-.8 8.9-1.5 13.3-2.3 1.8-.3 3.6-.7 5.2-1.6-.2-2.3-.6-8.5-.7-8.9-.5-6.2-.9-12.4-1.4-18.6-.1-1.4-.2-2.7-.3-4.1 0-.3-.2-2.4-.3-2.6-.9.2-1.7.3-2.6.4-4.8.6-9.6 1.2-14.4 1.9-4.5.6-8.9 1.3-13.4 1.8-5.9.7-11.8 1.2-17.7 1.8l-1.5.3C42 255.2 41 244.7 41 233.9h88.2v-37.4c0-2.3 3.5-2.2 3.5-.1v55c-.6 0-1.2-.1-1.7-.1-.7-.1-1.2.2-1.7.3-.2.1-.6 0-.8.1-.5.2-.8.6-1.2 1-.2.3-.5.6-.7.9l-.1.1h-3c-.8 0-1.8.1-2.8.3-3.3.6-6.1 2.5-8.5 4.3-.7.5-1.4.7-2.3.8-3.6 0-6.6.1-9.4.3-.7 0-2.1.2-3.3.2-.1 0-.1.2-.2.3-.1.1-.3.2-.3.4l.1 1.6v.2h1.5c.3-.1.3-.1.7-.1h1.1c.7 0 1.4 0 2.1-.1 1-.2 2-.1 3.1-.1h.2c.3 0 .6.1.9.1.2 0 .4 0 .6.1.6.1 1.3.2 1.9-.2.1-.1.3-.1.6-.1.2 0 .5.1.9-.1.3-.2.8-.4 1.3-.4h1c.8 0 1.3 0 1.8.4.2.2.4.2.7.1.5 0 .7-.3.8-.5v-.2c0-.2-.1-.4-.2-.6 0 0-.1-.1-.2-.1-.1-.1-.3-.2-.5-.4l-.1-.1c-.1-.1-.2-.2-.3-.2-.1 0-.2-.1-.5-.1-.1 0-.3-.1-.4-.1 1.2-.9 2.5-1.7 3.9-2.4.1-.1.3-.1.5-.2l1.5-.6.5-.2c2-.6 3.9-.8 5.2-.4l-.4.3c-.4.3-.8.7-1.3 1-.3.2-.6.4-1 .7-.5.3-1 .7-1.5 1.1-.4.3-.7.7-.9 1.1-.3.5-.4 1.1-.2 1.7 0 .1.1.3.1.4.5 1.3 1.5 2 2.9 2.1 1.7.1 3.3-.2 5.1-1.1l.4-.2c.6-.3 1.3-.6 1.9-.8 1.3-.4 2.5-.3 3.6.3 1.3.7 2.4 1.6 3.6 2.7 1 1 2 2.1 3.2 3.6l.6.9.1.2.1.2c0 .1.1.2.1.2 0 .1.1.2.1.3l.2.3c.7.9 1.4 1.8 1.9 3l.1.2c.1.3.3.6.6.8.4.2.7.6 1 1 .1.2.3.3.5.3h.3l.1.1c-.2.1-.3.3-.3.5 0 .5-.1.9-.5 1.5l-.2.3c-.4.7-.3.5-1.1.6-.4.1-.5 0-.6-.1-.6-.7-1.3-1.2-2.1-1.6-.4-.2-.8-.4-1.1-.6-1.1-.9-1.9-2-2.8-3l-.2-.2c-.1-.2-.2-.3-.3-.4-.1-.1-.4-.3-.4-.3s0-.1.2-.4c.1-.1.1-.2.1-.2s.1.1.3.2c.5.4.9.3 1.1.1.1-.1.5-.4.5-.9 0-.4-.3-.6-.5-.8-.2-.2-.5-.4-.7-.6l-.4-.3c-1.1-.9-2.3-1.8-3.3-3-.5-.5-1-.6-1.5-.2-.4.3-.7.8-.7 1.1 0 .3.1.5.3.7.3.3.6.7.8 1.1.4.6.9 1.2 1.6 1.7 1 .7 1 1.4.9 1.8-.2 1 .3 1.4.6 1.6l5.3 6 .3.3c.2.2.4.4.5.6 1.1 2 2.1 4.1 3.1 6.1.3.7.1 1.2-.2 1.7-.2.3-.5.6-.9.8-.2 0-.5 0-.7-.3-.4-.6-.7-1.2-1-1.9l-.1-.1-.2-.4s.3-.2.5-.3c.8-.4 1.4-1.2 1.2-2-.1-.3-.3-.7-.5-.9-.3-.4-.6-.4-.8-.4-.4 0-.8.3-1.1.8-.3.5-.6.9-.9.9l-.1-.1c-1-1.7-2.5-3.1-3.8-4.2l-.6-.5c-.8-.8-1.6-1.6-2.5-2.8l-.1-.1c-.1-.2-.2-.2-.2-.4s.1-.8-.6-.9c-.5-.2-.8.2-1.1.4l-.1.1c-.3.2-.6.7-.3 1.3.2.6.6 1.2 1.1 1.6.3.2.6.6.8.8l.3.4c.2.2.4.5.7.8.7.8 1.4 1.7 2.3 2.2.5.3.9.6 1.1 1.1.3.5.7.9 1.1 1.2.1.6-.1 1.1-.5 1.8-.2.4-.7.6-1.2.7l-.4.1c-.2 0-.4-.3-.6-.5-.3-.4-.8-.4-1.2-.4-.2-.2-.4-.2-.5-.2-.2-.7-.7-1.1-1.2-1.5-.4-.3-.7-.6-.9-1-.1-.3-.5-.4-.7-.5-.2-.3-.4-.4-.6-.6-.2-.1-.3-.2-.4-.4-.4-1.1-1.2-1.8-2.3-2l.1-.1c.2-.2.4-.4.5-.4.3-.1.6.1.9.4.1.1.4.1.5.1h.1c.5 0 .9-.3 1.2-.7.2-.6-.1-1-.4-1.3-.3-.3-.6-.4-.8-.5-.1 0-.2-.1-.2-.1-.2-.1-.4-.1-.5-.2-.2-.1-.4-.1-.5-.2-.9-.8-1.8-1.7-2.6-2.4s-1.6-1.4-2.4-2.2c-1-.9-2.1-1.9-3.6-2.3h-.4c-.1 0-.3-.1-.4-.1-.2-.1-.5-.2-.8-.2-.7 0-.8.5-.9.7l-.1.2c-.1.2 0 .5.1.6.1.2.4.4.7.4.6 0 1.1.3 1.6.6.4.2.8.5 1.3.6l.2.1c.1 0 .4.1.4.2.4.5 1 .9 1.5 1.3s.9.7 1.3 1.1c.3.3.2.3 0 .5-.1.1-.6.5-.3 1l.3.3c.1.1.4 0 .6 0l.2-.1h.2c-.6.6-.4 1.1-.3 1.6v.3c0 .4.2.7.4 1.1 0 .1.1.2.1.2l.1.4s0 .2.1.3c.3.5.8.8 1.2 1 .2.1.4.2.6.4.2.2.5.4.7.7.5.5 1 .9 1.5 1.3.5.3.7.6.8 1 .1.6.6.8.9.9l.1.1c.2.1.3.2.4.4.2.5.6.7.9 1 .2.1.4.3.5.5l.1.1c0 .2-.1.3-.1.5v.3c-.3 0-.5.2-.7.5-.2.3-.2.6-.2.7v.2c-.2-.2-.4-.3-.6-.4-.4-.2-1.2-.9-1.6-1.4v-.1c.1-.1.1-.2.1-.3 0-.1 0-.4-.2-1.3l-.1-.3v-.2c-.4-.6-.8-1-1.2-1.2-.7-.4-1.3-1-1.8-1.6 0 0-.1-.1-.1-.2.1-.8-.4-1.3-.8-1.7-.2-.2-.3-.3-.4-.5-.2-.3-.4-.5-.6-.6-.1-.1-.1-.1-.2-.1-.2-.1-.4-.1-.6 0-.2.1-.3.3-.3.5v.2s-.1.1-.2.1-.1 0-.3-.2c-.1-.1-.2-.2-.4-.3-.1 0-.2-.1-.2-.1-.5-.9-1.4-1.4-2.1-1.9l-.2-.1c-.2-.2-.5-.3-.7-.5l-.1-.1c-.6-.5-1.3-.9-2.1-1.2-.1-.1-.3-.3-.4-.5-.2-.5-.6-.6-1-.6-.6 0-.9-.4-1.4-.9l-.5-.5c-.1-.1-.2-.1 0-.6 0-.1.1-.2.1-.5 0-.1 0-.3-.1-.5-.3-.9-1-1.4-1.8-1.4h-.2c-.1-.8-.6-1.2-1.3-1.3-.6-.1-1.2 0-1.8.3-.3.2-.7.3-1.1.4-.4.1-.8.2-1.2.4-.3.1-.7 0-1.1-.2l-.2-.1c-.5-.2-1 .2-1.2.4-.2.2-.3.2-.4.2h-.3c-.5 0-1 .1-1.5.4-.5.3-1.2.3-1.6.3h-.3c-.2 0-.4-.1-.8-.1-.2-.1-.4-.1-.7-.1H99c-.2 0-.5.1-.7.3l.1.6.8 10c0 .1.1.1.1.1.1.2.1.3.2.3.1.1.3.1.5.1l4.5-.8.1.4c.1.5.3 1 .4 1.5.4 1 1.1 1.6 1.9 2 .1.1.2.3.3.3 1 .3 2.1 0 3.1-.8.1-.1.2-.1.3-.2v1.2c0 .5.2.9.4 1.3l.3.5c.3.4.7.7 1.1 1 .8.5 1.7.7 2.7.7.5 0 .7 0 1-.1.1.6.3 1.2.7 1.6l.3.3.1.1c.4.3.9.6 1.4.9.8.4 1.6.4 2.3.3.6-.1 1.2-.3 1.8-.6.3.5.8.8 1.2 1.1.6.4 1.2.6 1.8.7h1c.3 0 .7-.1 1.1-.2l.3-.1c.2-.1.5-.2.8-.4h.2c.2.1.5.1.7 0h.2c1.1-.6 2.3-.7 3.2-.8h.1c.5 0 .9-.1 1.2-.2-.3.1-.7.1-1.2.2v39.2c0 1.4.2 3-1.1 3.7l-.2.1c.6.1 1.5-.1 1.5-.1 1.9-.7 1.6-2.3 1.6-3.7V318v-22.6c1.5.7 2.7.6 4-.8.1-.1.2-.2.2-.3.5.2.9.4 1.3.4.7 0 1.4-.2 2.2-.7.3-.2.9-.7 1.1-1.2.1-.2.2-.3.3-.3 1.5 0 2.3-.5 3.1-1.5l.2-.2c.2-.2.3-.4.5-.6.1-.1.2-.1.2-.1.2 0 .4-.1.6-.1 1.1-.2 2.5-.4 3.3-1.2 1-.9 1-2 .8-3.1 3 .3 5.7 1 8.4 1.9.2.1.4 0 .5-.1.1-.1.1-.2.2-.3 0 0 .1-.1.1-.2l.6-7.2v-.3l-1.2-.7c-.9-.7-2-.7-2.9-.5-.4.1-.7.1-1.1.1-.5 0-1.1 0-1.7.2-.7.2-1.2.4-1.2 1.5 0 .1-.1.2-.2.2l-.2-.1c.3-.5.3-1 .3-1.5v-.9c.1-.1.2-.4.2-.5v-.5c0-.2-.1-.4-.2-.6-.2-.2-.4-.3-.7-.2 0 0-.1 0-.1.1-.1.1-.3.2-.3.4h.1v.1l-.2.1c0 .1-.1.3-.1.4 0 .6-.3 1-1 1.4l-.1.1-.2.2c-.1.2-.2.4-.2.7 0 .2-.1.3-.2.4-.2.2-.5.4-.7.5-.3-.9-.7-1.7-1.1-2.4l-.2-.4c-.1-.1-.1-.2-.2-.4-.1-.1-.1-.2-.2-.4 0 0-.1-.2-.2-.3l1.9-.3h.9c.4 0 .8-.1 1.2-.3.1 0 .3-.1.4-.2.2-.1.3-.3.3-.5 0-.1 0-.3-.1-.4 0-.2-.1-.3-.2-.5l-.1-.1c-.3-.2-.5-.2-.8-.2-.2 0-.4.1-.7.2-.1 0-.2.1-.3.1-.4.1-.9.1-1.3.1l1.8-1.3c.8 0 1.2-.6 1.4-1 .2-.1.3-.3.4-.5l.1-.1c.1-.1.2-.3.3-.4.1-.3 0-.6-.2-.8-.1-.2-.4-.5-1.1-.2-.2 0-.3.2-.4.3h-.8c-.9.3-1.9.5-3 .4h-.2-.1c-.3-.5-.8-.6-1.3-.8-.2-.1-.4-.1-.5-.2l-.2-.2c-.1-.1-.3-.2-.5-.2-.5.1-.8.1-.9.4-.1.1-.1.2-.1.4v.1c0-.1-.1-.1-.1-.3-.1-.1-.1-.2-.2-.3-.3-.5-.8-.7-1.2-.7l-3.5-4.8.1-.1c.2-.1.4-.3.7-.4.1-.1.2-.2.3-.2.1-.1.2-.2.3-.2.4-.3.6-.6.9-.9.2-.2.2-.6 0-.8-.2-.2-.5-.3-.8-.1l-.5.3c-.5.3-.9.6-1.4 1-.1-.2-.3-.4-.6-.6 0 0-.2-.1-.3-.2l1.6-1.4c.2-.2.3-.6.1-.8-.1-.2-.3-.2-.5-.2-.1-.1-.1-.2-.3-.4-.4-.3-.8-.6-1.4-.5-.6.1-.6.6-.7.8 0 .1-.1.3-.1.3-.1.1-.3 0-.4-.1-.3-.2-.6-.2-1.2-.2-.4 0-.8-.2-1.1-.4-.1-.1-.2-.1-.4-.2-.1-.1-.3-.3-.5-.6.1-.1.1-.2.2-.4.1-.3 0-.7-.3-.8v-.1c.1-.2.2-.5.1-.9 0-.2 0-.8-.6-.9-.3-.1-.7 0-1 .2-.2.2-.3.5-.3.7 0 .3-.1.5-.2.8-.1.2-.3.5-.3.9 0 .1-.1.2-.1.2-.6.2-1 .7-1.3 1-.1.2-.3.3-.5.5-.4.4-.7.4-1.2.1-.1-.1-.3-.2-.5-.2-.3 0-.4.1-.6.3l-.3.3c-.3.3-.3.4-.5.3h-.2c-.2 0-.4.1-.7.2l-.1.1c-.2 0-.4.1-.5.1-.2.1-.4.1-.6.2-.4.2-.9.4-1.4.4-.4 0-.7 0-.9-.1-.1-.4-.1-.8 0-1.2.1-.3.3-.6.6-.8l.1-.1c.4-.3.8-.7 1.3-.9.9-.5 1.8-1.1 2.6-1.9.1-.1.2-.3.4-.4l.2-.2v-.1l.2-.2.5-.5c.2-.3.5-.6.7-1 .8-1.2 1.8-1.4 3.1-1.3h.7c.1.1.2.1.4.2s.4.2.5.3c.5.5 1 .3 1.4.2.1 0 .3-.1.4-.1.2.1.6 0 .9.1 1 .3 2 .3 3 .2h.2c.6 0 1.2-.1 1.9 0 .2 0 .5-.1.8-.2.9.2 1.7.6 2.4 1.1l.2.1c1.9 1.2 4 2.6 5.8 4.1 1 .7 1.8 1.6 2.7 2.6l.2.2 1.2 1.2c.1.1.2.2.4.2l4.2.3c.5.1 1.1.1 1.7.1H162.6l1.2.1v-1c0-.1-.1-.2-.1-.3v-.1c-.1-.1-.3-.2-.4-.2l-3-.2c-1.7-.1-3.4-.2-5.2-.3-.3-.3-.5-.6-.7-.8-.6-.7-1.2-1.4-2-2-2.1-1.6-4.4-3.3-7.3-5.2-1.8-1.2-3.8-1.8-6.2-1.7-1.1 0-2.3 0-3.7-.1h-.5v-17.6h88.5zm-109.4-40.6c4 1.4 8.9 2.5 14.2 3v2.2c-2.4-.1-7-.5-8-.7-3.2-.6-6.5-1.1-9.7-1.8-.6-.1-1.3-.3-1.9-.7-.4-.2 4.8-2.2 5.4-2zm32.7 90.1c-.1-.2-.4-.5-.6-.5h-.1s0-.1.1-.2c0-.2.1-.3.1-.5.1-.4.1-.7.3-.8 0 0 .2-.1.6 0 .2.1.5 0 .6-.2l.1-.1.1-.1c.1-.1.3-.1.4 0 .1.3.2.5.3.7.1.2.1.3.2.6 0 .1 0 .3.1.4.1.2.4.4.6.4.2 0 .3-.1.4-.3l.3.6.5 1.1c.1.2.2.5.3.7.6 1.6 0 2.2-.6 2.5-.3.1-.6.2-1 .2-.6 0-1-.2-1.2-.4l-.2-.2-.6-.9-.3-.6c0-.4-.2-.7-.5-1l-.3-.6-.1-.2s.1-.1.2-.1c.3 0 .4-.3.3-.5zm-6.3 6c.1-.1.1-.2.2-.3 0 0 0 .1.1.1.3.5.6 1 1 1.5.1.1.1.2.2.3 0 .1.1.2.1.2l.1.2c-.4.5-1 1.2-1.7 1.5-.3-.1-.6-.1-.7-.2-.5-.3-.7-.5-.9-.8l-.4-.4s0-.1-.1-.1c0-.1 0-.4.1-.4.1-.1.2-.1.4-.1.8 0 1.2-.5 1.5-1-.1-.2 0-.3.1-.5zm-.1-1.3zm-3 5.7c-.6.7-.8.6-1.1.6.1-.2.1-.3.2-.5.1-.3.3-.6.4-.9h.8c.1.4-.1.6-.3.8zm-10.6-.8c.1.5.5.5.7.5h.2v.1c-.4.7-1 .9-1.8 1.2l-.1.1c-.2.1-.3.1-.4.2-.2 0-.3-.1-.4-.1-.1 0-.1-.1-.1-.1-.2-.1-.3-.2-.5-.3l-.1-.1c-.1-.2-.2-.3-.3-.4.2-.2.4-.5.7-.8.2-.3.5-.6.8-.9 1.1-1.1 2.2-2.2 2.2-3.9.3.1.7.4 1.1.7.2.1.3.4.3.6 0 .2-.2.5-.5.8-.2.2-.3.4-.4.7-.2.4-.3.6-.6.7-.6.1-1 .5-.8 1zm-8.9-1.3c.3-.4.6-.7.9-1.1l.5-.6c.3-.3.6-.7 1-1.1.1-.1.2-.3.3-.4.3-.4.5-.7.8-1.1.2-.3.4-.7.7-1 .6-.7 1.2-1.1 1.7-1.1.1 0 .2.1.3.1.3.1.5.2.6.4.1.4.5.8.7 1 .3.4.6.6.5 1 0 .1 0 .3.1.4 0 .4-.1.8-.3 1.2-.1-.1-.3-.2-.5-.3-.2 0-.4-.1-.7.1-.3.2-.3.5-.4.8v.1c-.1.5-.5 1-.9 1.4-.2.1-.3.3-.5.5l-.2.2c-.3.3-.7.6-1.1.9-.6.4-1.2.6-1.8.6h-.2c-.4 0-.6-.2-1-.5-.2-.2-.4-.3-.6-.5-.1-.1-.2-.2-.2-.3.1-.3.2-.6.3-.7zm-.6-2.8c-.4.3-.8.6-1.1 1-.2.2-.8.7-1.7.7h-.6c-.6-.1-.6-.1-.6-.4 0-.4-.2-.7-.6-.8-.4-.1-.5-.3-.5-.8v-.2c.2-.4.5-.9 1.1-1.3l.9-.7c.7-.5 1.4-1.1 2.2-1.5.6-.4 1.2-.5 1.7-.5.2 0 .4 0 .6.1l.1.1c0 .1.1.1.2.2 0 0 .1.1.1.2l.2.2c.1.1.1.2.2.2l.1.1.2.2c0 .4 0 .7.1.9-.6.1-1 .6-1.2.9-.3.6-.8 1-1.4 1.4zm-8-3.2l-.2.1c-.6.3-1.2.5-1.8.2l-.4-.2c-.3-.1-.6-.3-.9-.5-.1-.4-.1-.7-.1-.9l.6-.3c.6-.4 1.2-.2 2 .2.4.2.7.6.8 1.4zm27.2-87.4v-1.6c6.1-.1 11.7-.8 16.6-2.1l2-.5c-.3.9-1.4 1.5-1.9 1.6-2.8.8-5.4 1.1-8.3 1.7-1.8.3-3.5.5-5.4.7-.9-.1-2.1.1-3 .2zm-28.9-44.8c.5-2.4 1.8-4.8 4-6.9.4-.4 2.4-2.7 3.6-3.4 3.6-2.5 5.1-3.6 9.4-4.4 2.4-.5 4.5-.2 7.1.3 4.4 1.2 7.5 2.8 10.5 5.7.9.7 4.5 4.7 5 5.4l-.1.1c-.6.7.5 1.8-.5 2.2-1 .5-1.4-.5-2.1-1.1-.5-.4-1-1.3-1.6-.9-2.1 1.5-3.9-.9-5.9-.3-.3.1-2.7 0-.7-1.8 1.2-1 .5-2.2-1.1-2.5-2-.4-3 1-4.2 2.1-.8.8-1.3 2.2-3.1.9-1.1-.8-3.4.4-4.4 1.1-3.5 2.6-7 4.5-10.1 7.7-.9.9-3.1 1.2-4.3.3-1-.9-1.9-2.4-1.5-4.5zm.5 30.7c1.3-6.9 2.7-13.8 5-20.4.4-1.3 1.3-2.5 1.4-3.9 3.1-.5 5.9-1.2 8.7-2.8 2.7-1.5 5.5-2.8 8.8-3.6 4.5-1 8.6 1.1 12.9.3 1.8-.3 2.8.6 2.6 2.6-.2 2.2-.3 4.3 2.1 5.5.6.3 1.3 1.3 1.2 2.4-.3 2.8 1.1 5.2 2 7.8.4 1.2.2 2.7.2 4.1 0 .9-.4 1.6-.9 1.4-1.9-.7-3.9-.6-7.2-.7-2.8-.1-5.5 0-8.2-.2-2.6-.1-5.1.3-7.9.8-2.2.2-1.4 3.7 2.3 3.7 4.8 0 14.2-.3 20.1.9.4.1 2.2.4 2.6.5 1.6.3 2.8 1 2.1 2.9-.4 1.3-.8 2.6-1.2 4 .4.5 1.7.7 2.8.2.6-.2.1.6-.2 2-.3 1.3-1.1 1-1.9.8-5.3-1.2-10.8-1.6-16.2-1.9-5.3-.3-10.7-.5-16-.1-5 .4-9.8 1.6-14.6 2.9-.3.1-.5.2-.7.3-.5.3-.7.3-.8-.4-.2-2-.5-4-.9-6-.3-1.7.2-2.7 1.9-3.1zM198.6 96.6c.8.4 1.5.9 2.3 1.3.7.5 1.5.9 2.3 1.3 1.4.8 2.8 1.6 4.4 2.1-.3-.3-.5-.6-.8-.9-.8-.9-1.5-1.8-2.4-2.6-1.7-1.7-3.4-3.3-5-4.8-1.4-1.3-3-2.7-4.6-4-.5-.4-1-.8-1.5-1.1l.6 1.2 2.4 4.8c.6 1.3 1.4 2.1 2.3 2.7z"/>
    <path class="st0" d="M48.2 128.2c.8-.2 1.6-.4 2.4-.4h.1c.1 0 .2 0 .3-.1.1 0 .1 0 .2-.1.9-.2 1.8-.5 2.7-.7 2.2-.6 4.5-1.1 6.8-1.7 1-.3 1.9-.6 2.9-.9.1 0 .2-.1.3-.1h-6.5c-1.5 0-3 .3-4.5.9-.2.1-.4.2-.6.2-.8.3-1.7.6-2.3 1.1-.7.5-1.2 1.1-1.8 1.8zM59 105.6c.1-.1.1-.1.2-.1 1.5.1 2.6.3 3.7.7.4.1.7.2 1.1.4 1.4.5 2.9 1 4.2 1.9.2.1.4.2.7.3 2.3.7 4.1 1 5.9.8.2 0 .4-.1.6-.1.3-.1.6-.1.9-.1 1.2-.1 2.4-.4 3.6-1 .6-.3 1.1-.6 1.6-.9.6-.3 1.3-.7 1.9-1l2.1-.9c-1.3-.1-2.7-.1-4-.1h-2.4c-1.2 0-2.4-.1-3.5-.3l-.6-.2c-1.2-.2-2.3-.4-3.4-.4h-1.4c-2.3-.4-4.4-.4-6.5 0-.3 0-1 .2-1.4-.8-.1-.2 0-.3.2-.4.7-.2 1.4-.5 2-.7 1.9-.6 4-1.3 5.8-2.4.3-.6.8-1 1.3-1.5.6-.6 1.2-1.1 1.5-1.9l.1-.1c.8-.4 1-1.2 1.3-2l.4-1.1c.6-1.8 1.2-3.7 1.9-5.5.1-.4.3-.8.5-1.2-.4.2-.7.5-1.1.7-1.2.8-2.5 1.7-3.8 2.6l-.5.4c-1.8 1.4-3.7 2.8-5.4 4.4l-.3.3c-2.3 2.2-4.7 4.4-6.4 7.2-.1.2-.3.2-.4.3-.1 0-.1.1-.2.1-.1.1-.2.1-.3 0-.1 0-.2-.1-.2-.1 0-.2-.1-.2-.1-.2-.1-.2-.1-.4-.1-.5 0-.3.1-.6.1-1s.1-.7.1-1.1c.1-1.6.4-2.9.9-4.1.1-.3.3-.7.4-1 .2-.5.5-1 .6-1.5.5-1.8 1.4-3.4 2.8-4.7.2-1.3-.1-2.6-.8-3.9-.2-.3-.4-.6-.5-.9-.2-.2-.3-.5-.4-.7-.8-1.3-1.5-2.7-2.3-4.1l-.8-1.4-.1.1c-.8 2.7-.9 5.6-1 8.4v1.1c-.1 3.2-.1 6.5-.1 9.7v3.1c0 1-.2 1.9-.4 2.8v.2c-.3 1.2-.9 2.1-1.4 3.1-.4.6-.7 1.2-1 1.9-.2.5-.7.9-1 1.3l-.3.3.4 3.1c1.8-3.3 3.4-5.5 5.3-7.3zM39.2 157.8c-.2.1-.4.1-.6.2h-.1l-1.2 3.5 1.2-.6c1.5-.7 3-1.5 4.5-2.2l.6-.3c.5-.2 1-.5 1.4-.8 1.4-1.1 2.7-2.2 4.4-2.9h-2.1c-1.2 0-2.3.2-3.5.8-1 .4-1.9.9-2.8 1.4-.7.3-1.2.6-1.8.9zM47.6 143.6c0-1.5-1.2-2.7-2.7-2.7-1.5 0-2.7 1.2-2.7 2.7s1.2 2.7 2.7 2.7c1.5 0 2.7-1.2 2.7-2.7z"/>
    <path class="st0" d="M38.3 126c-.1.6-.2 1.3-.3 1.9-.1.8-.2 1.6-.4 2.3-.3 1.1-.4 2.3-.5 3.4-.1.6-.1 1.2-.2 1.8-.1.5-.1 1-.2 1.5-.2 1.5-.4 3-.8 4.5 0 .1 0 .2-.1.3-.1.4-.2.9-.6 1.3-.7.8-1.3 1.7-1.9 2.6-.3.4-.5.8-.8 1.1-.1.1-.2.3-.3.4-.2.3-.4.7-.7 1-1.5 1.7-2.7 3.9-3.7 6.8-.5 1.4-.9 2.9-1.2 4.4-.1.6-.3 1.1-.4 1.7-.7 2.8-1.1 5.3-1.2 7.6 0 1.9-.5 3.7-1.3 5.3l-.1.2c-.3.6-.7 1.3-.7 1.9 0 .6 0 1.1-.1 1.6-.1.4-.1.8-.1 1.2 0 .9-.2 1.9-.7 2.9-.6 1.2-1.1 2.5-1.4 3.8-.2.8-.3 1.5-.5 2.3-.6 2.5-1.2 5.1-1.5 7.7-.2 1.3-.4 2.7-.7 4-.1.6-.3 1.3-.4 1.9-.1.5-.2 1.1-.3 1.6-.3 1.4-.5 2.8-.7 4.2 0 .3-.1.6-.2.9-.1.5-.2.9-.2 1.4l1.1-1.6c.4-.5.8-.9 1.2-1.4.9-1 1.7-2 2.5-3.1 1.8-2.5 4.3-4.3 6.5-6 1.6-1.2 3.4-2.1 5.3-2.6v-.1c0-.3 0-.5.1-.8.4-1.6.8-3.4.7-5.2-.1-1.2.1-2.3.3-3.5-3 3.3-5.1 6.1-6.9 9 0 .1-.1.1-.2.1h-.2l-.5-.4c-.1-.1-.1-.2-.1-.3.1-.9.1-1.6 0-2.2-.3-1.4-.8-2.6-1.4-3.8-.7-1.5-1-2.8-1-4.3 0-1.3.2-2.5.5-3.6.1-.5.2-1.1.3-1.6.2-1.1.5-2.2 1.3-3.1l.1-.1c.1 0 .2-.1.2-.1.3-.1.5-.2.6-.3 1.2-1 2.3-1.7 3.4-2.1l.3-.1c2.1-.9 4.4-1.7 6.4-2.8.3-.2.6-.3.9-.4l1.2-.6c.8-.4 1.7-.8 2.5-1.3 1.6-.8 2.8-2 4.2-3.3l.2-.2c1.8-1.7 3.2-3.7 4.4-6.1.4-.9.9-1.8 1.5-2.6-1 .6-2.1 1.3-3.1 2-.2.1-.3.3-.5.4-.2.2-.5.5-.8.6l-2.4 1.2c-.6.3-1.1.5-1.7.8-.8.4-1.6.9-2.4 1.3l-1.1.6c-1.4.6-2.5 1.6-3.4 2.4-.1.1-.3.1-.4 0l-.4-.4s-.1-.1-.1-.2l.1-.2c.6-.6.9-1.4 1-2.1.2-1 .6-1.9 1-2.6.3-.6.4-1.1.4-1.7v-11.2h.1v-.3c0-.3.1-.6.1-.9 0-.2.1-.3.1-.5v-.3c.4-.7 1.2-1.1 2-1.5 1.2-.6 1.6.1 2.1 1-.1-.2-.1-.5-.1-.7 0-1.4 1.1-2.5 2.4-2.7-.8 0-1.6.2-2.3.6-1.3.8-2.6 1.7-3.9 2.5v-.3c.2-1.1.3-2.2.4-3.4.2-2 .6-3.7 1.2-5.3.7-1.7.9-3.5 1.1-5v-.2c.1-.9.2-1.8.4-2.7.1-.6.3-1.2.4-1.8.2-.9.4-1.8.6-2.6.3-1.9 1.1-3.7 2.4-5.2.9-1 1.5-2.1 1.8-3.4.2-.7.5-1.5.8-2.4.2-.4.3-.8.4-1.1.4-1.1.9-2.3 1.5-3.3 1.3-2.2 2.2-4.6 2.8-6.4v-.1c-1.1 1-1.9 2.2-2.7 3.4l-.1.2c-.7 1.1-1.4 2.1-2 3.2-.5.9-1.1 1.7-1.6 2.6l-.9 1.2c-.5.7-1 1.3-1.4 2.1-1.1 2.5-2.2 5.1-3 7.8-1 1.9-1.6 3.8-2 5.6z"/>
    <path class="st0" d="M51.6 103.6c0 .1-.1.2-.1.3l-1.5 3c-1.1 2.1-2 4.3-2.8 6.9-.4 1.5-1.2 2.8-2.2 3.9-1 1.1-1.6 2.5-2 4.2-.1.4-.1.7-.2 1.1-.2.9-.3 1.9-.6 2.8-.3 1.1-.5 2.4-.6 3.5v.2c-.2 1.4-.3 2.9-.8 4.4-.1.3-.1.5-.2.8.5-.2 1.1-.3 1.7-.4.6 0 1.1-.2 1.7-.3.3-.1.5-.1.8-.2h.1c.9.2 1.5.2 2.1.2.9-.1 2-.2 3.2-.5.3 0 .5-.1.8-.1.9-.2 1.8-.3 2.6-.7.9-.4 1.8-1 2.6-1.5.4-.2.7-.5 1.1-.7 2.1-1.1 4-2.6 5.9-4.7-.6.2-1.3.4-1.9.5-2.3.7-4.5 1.3-6.8 1.8-1.2.3-2.4.5-3.5.7-.5.1-1.1.2-1.6.3-1.5.3-3.1.7-4.3 1.9-.1.1-.3.2-.5.4-.1.1-.3.2-.5.3-.1.1-.2.1-.3 0-.1-.1-.1-.2-.1-.3.1-.2.1-.4.1-.5.1-.3.1-.5.3-.7.5-.6.9-1.1 1.4-1.4 1.6-1.1 2.8-2.6 3.6-3.7 1.3-1.7 2.1-3.4 2.4-5.2.4-2.4.6-4.6.6-6.7V112c0-1.2 0-2.3-.3-3.3-.3-.9-.3-1.9-.3-2.8v-.5c.1-.5.1-1.1.1-1.8zM3 245.2c.3.4.7.8 1 1.2 2.6 3.6 5.1 7 7.5 10.3 1.1 1.5 2.3 3.2 3.8 4.5 0-.1-.1-.1-.1-.2-.6-1-1.1-2-1.2-3.2v-.1c-.9-1.3-1.5-2.7-2-4.1-.1-.3-.3-.7-.4-1-.9-2.3-1.4-4.4-1.3-6.4v-2.1c0-1.7 0-3.5.2-5.3.1-.5.1-1.1.1-1.6 0-.7 0-1.5.2-2.3v-.2c-1.5-.1-3-.5-5-1.5.2.3.4.7.6 1 .4.7.9 1.3 1.2 2 1.3 2.4 2.1 4.7 2.3 7.1 0 .1 0 .2-.1.3-.2.2-.5.1-1.3-.3-.8-.3-1.8-.7-2.5-.7-2.2-.1-3.9-.8-5.1-2-.3-.3-.5-.5-.8-.7.3 1.1.9 2.3 1.7 3.5.2.7.7 1.2 1.2 1.8zM136.7 401.3c.1-1.6-.5-2.3-1.4-3 .2 1.7.3 3.6.1 6 .7-.8 1.2-1.9 1.3-3zM155.3 422.9l-.1-.2c-.1-.1-.1-.2-.2-.3-.7-.8-2.1-2.5-2.8-3.2-1.8-1.9-3.1-2.9-5-4.8-1.1-1.1-2.5-2.4-3.8-3.3-.6-.4-2.5-1.8-2.9-2.2-.9-.6-3.4-2.4-4.6-3.1.7.7 2.6 2.5 4.1 3.7 2 1.7 2.9 2.5 4.8 4.3.8.8 1.5 1.3 1.8 1.8.4.5 1.3 1.5 1.7 2 2.2 3 4.6 7.3 6.3 10.6h1.6c.7.1 1.6.2 2.5.7-.1-.4-.2-.8-.4-1.2-.9-1.7-1.9-3.3-3-4.8zM186.5 403.3c-.4-.1-.8-.2-1.3-.4-1.8-.5-3.7-1.1-5.4-2-.3-.2-.7-.4-1-.6-1-.6-1.9-1.2-3-1.7-.3-.1-.5-.3-.8-.4-1.2-.6-2.3-1.2-3.6-1.2h-.1c-.1 0-.2 0-.2-.1-.4-.4-1-.5-1.6-.6-.2 0-.4-.1-.6-.1-1.7-.4-3.2-.8-4.6-1.1h-.2c-.4-.1-1-.2-1.3-.7-.1 0-.2.1-.3.1-.4.1-.7.3-1 .5-.7.6-1.6.9-2.7 1l-1.1.1c-1 .1-2.1.3-3.1.4-.5.1-1 .2-1.6.3-.3.1-.7.1-1 .2-1.9.3-3.7 1.3-5.4 2.2-.3.2-.7.4-1 .5-.5.3-1 .7-1.6 1.1-.1.1-.3.2-.4.3l.6.3c.4.2.7.2 1.1 0 2-1.1 4.2-1.3 6.1-1.4 2.6-.2 4.7-.7 6.6-1.6 1.2-.5 2.6-1 4.3-1 .5 0 1 .1 1.6.2.1 0 .1 0 .2.1l.9.9c.7.8 1.5 1.6 2.3 2.3.3.3.6.5 1 .9 1.8 1.4 3.9 1.7 6.1 2 .4 0 .7.1 1.1.2.2 0 .4.1.6.1.5.1.9.1 1.4.3 1.2.4 2.1.7 2.9 1.1 1.1.6 2.4.7 3.6.4 1.6-.4 3.3-.9 4.9-1.4l.9-.3h-.2c-1-.3-2.1-.6-3.1-.9zM221.2 360c-.6.3-.9.9-1.3 1.5-.2.3-.3.5-.5.8-.2.3-.5.6-.7.9-.7.9-1.4 1.9-2.2 2.8-1.2 1.3-2.5 2.6-4.3 3.3 1-.3 2-.5 3.1-.7 2.8-.6 5-1.5 6.7-2.8 1.7-1.2 3.5-2.1 5.7-2.8 1.3-.4 2.6-.9 3.9-1.3l1-.3c-3.4-1.3-6.9-1.7-11.4-1.4zM174 410.8c-.1 0-.3-.1-.4-.1-2.3-.3-4.6-.8-6.8-1.4-.7-.2-1.4-.3-2-.5-3-.7-6.3-1.5-9.5-2.1-2-.4-3.9-.9-5.6-1.6-1.3-.5-2.6-1.1-3.9-1.7l-1.8-.9c-1.9-.9-3.9-1.5-5.8-2.1.1 1.3-.2 2.6-.8 3.8.2.1.4.1.5.2.4.1.9.1 1.3.2 1.4.2 2.8.6 4.1 1.1l.6.2c1.4.5 2.8 1 4.3 1.5 2.7.9 5.4 1.9 8.1 2.9 1.7.6 3.4 1.4 4.8 2.1.8.4 1.6.9 2.3 1.4.7.5 1.5.9 2.2 1.3.6.3 1 .7 1.5 1l.2.2c.2.1.3.3.5.4.3.2.5.5.8.6-.1-.2-.1-.5-.2-.7-.4-1.4-.4-2.5.3-3.3.8-1.2 1.9-1.9 3.2-2.2l2.1-.3z"/>
    <path class="st0" d="M178.5 412.7c-.5-.4-1.1-.5-1.1-.5-1.7-.7-2.4-.4-4.7.1h-.2c-.6.1-1.1.1-1.7.6-.4.3-1.5 1.2-1.5 2.3 0 1.1 1.4 2.6 1.8 2.8.5.3 1.1.5 1.1.5.4 0 .8 0 1.2-.1 1 0 1.8-.3 2.7-.9 1-.7 1.9-1.7 2.7-2.7.4-.5.7-.7.5-1.3-.2 0-.2-.3-.8-.8zM147 420.4c-1.2-2.3-2-2.9-3.5-4.9l-1-1.2c-.2-.2-.8-.9-1.1-1.1l-1.3-1.4c-1-.8-1.1-1.1-2-2-.8-.8-2.7-2.2-2.9-2.4.6.8 3.2 3.9 3.8 4.7 1.2 1.7 2.4 3.4 3.5 5.2 1.4 2.2 2.7 4.4 3.8 6.7 1.1 2.1 1.9 4.5 2.6 7.2.1.3.2.6.3 1 .5-1.6 2-2.8 2.3-3-.9-1.7-2.2-4.3-3.2-6l-1.3-2.8zM225.7 358.9v.1l.1.1c0-.1 0-.2-.1-.2zM248.8 308.2c.3-.7.8-1.4 1.3-2 .1-.2.3-.4.4-.6v-.1c.4-.5.8-1.1 1.2-1.5.5-.4 1-.8 1.6-1.2.3-.2.7-.5 1-.7.2-.1.4-.3.6-.4.7-.5 1.4-1 1.9-1.6-.6.1-1.3.3-1.9.4-1.9.2-3.8.7-5.8 1.4-.8.3-1.3.7-1.6 1.4-1 3.1-2.4 6-3.7 8.4-.8 1.6-1.9 2.9-3.2 4-2 1.5-3.5 3-4.8 4.5-1 1.1-1.6 2.4-2.1 4.2l-.2.7c-.4 1.4-.8 2.9-1.5 4.2.8-.8 1.6-1.5 2.4-2.4 1.4-1.6 2.1-3.4 2.1-5.5 0-1.2.7-2.3 2.1-3.3.6-.4 1.2-.8 1.7-1.3 1.5-1.5 3.1-2.8 4.7-4.2 1.6-1.2 3-2.5 3.8-4.4zM202.6 382.8c-1.3.7-1.8 2.3-1.2 3.6.7 1.3 2.3 1.8 3.6 1.2 1.3-.7 1.9-2.3 1.2-3.6-.7-1.3-2.3-1.9-3.6-1.2zM226.2 351.1c-.8 2.8-2.4 5.1-4.2 7.5l-.1.2c1 .1 1.6-.2 2-.8.7-1.4 1.9-2.5 2.9-3.4 1.1-.9 2.3-1.9 3.7-2.4.8-.3 1.7-.6 2.6-.8l-6.9-.3zM229.6 335.4c.6-1.6 1.1-3.1 1.6-4.5-2.1 2.4-4.1 5.3-5 7.5l2.6-.7.8-2.3z"/>
    <path class="st0" d="M229.7 363.8c-2.3.7-4.8 1.6-7 3.1-2.3 1.6-4.7 2.6-7.1 3-.4.1-.9.2-1.4.3-.7.2-1.3.3-2 .5-.8.2-1.5.4-2.3.6-1 .2-1.9.3-2.9.3-.5 0-1 0-1.6.1-.4 0-1.1.1-1.4-.7 0-.1 0-.3.1-.4.1 0 .2-.1.3-.2.2-.1.5-.3.7-.4.7-.2 1.4-.4 2.1-.7 1.1-.3 2.3-.7 3.4-1.1.7-.3 1.4-.7 2.1-1.1l.4-.2c1.2-.7 2-1.7 2.9-2.8.2-.3.4-.5.6-.8.5-.7 1-1.3 1.5-1.9 1.1-1.5 2.3-3 3.4-4.6 2.1-3 3.4-5.7 4.1-8.5.6-2.9 1.6-5.3 3-7.3-1.3.7-2.5 1.7-3.7 2.7-.5.5-1.1 1-1.6 1.5-.4.4-.7.8-1.1 1.1-.2.2-.5.4-.8.7-.4.3-.7.6-1 .9-1.4 1.6-2.6 3.1-3.8 4.6l-.2.3c-1 1.3-2.1 2.7-3 4.2-2.2 3.7-4.5 7.1-7 10.2-.3.4-.6.7-.9 1.1-.8 1-1.7 2-2.3 3.2-.5 1-1.1 2-1.9 2.9l-.3.6c-.1.1-.1.3-.2.4l-.1.1-.3.2c-.3.2-.6.4-1 .7l-.1.1c-.6.5-1.2.9-1.9 1.4-1.2 1-2.5 1.8-3.8 2.6.8-.2 1.6-.4 2.5-.5.5 0 .9-.2 1.3-.3v.1c1.5-.6 3-.5 4.3.5 1.1.8.6 1.5.1 2.3.2-.2.3-.3.6-.5 1.3-.7 2.9-.1 3.6 1.1-.2-.8-.8-1.4-1.7-1.9-1.6-.9-3.3-2-4.9-2.9.9-.9 1.7-1.9 2.5-3 .7-1 1.6-1.6 2.7-1.9 1.9-.6 3.4-.9 5-.9 1.5 0 3 .2 4.4.4.4.1.9.1 1.3.2 1.2.1 2.5.2 3.8.2.7 0 1.4.1 2.1.1 2 .1 3.7-.6 5.5-2.5.7-.7 1.5-1.6 1.9-2.7.1-.3.3-.6.5-.8l.2-.2c.8-.9 1.5-1.9 2.3-2.8.2-.2.4-.4.6-.5.1-.1.2-.1.3-.2l1.4-1.2c-.4.1-.8.3-1.3.4-.9.1-1.9.5-2.9.8zM36.3 362c.5.7 1 1.4 1.4 2.1.3.4.5.8.8 1.2.2.3.4.6.5.9.5.8.9 1.6 1.7 2 .7.5 1.4.9 2.4 1.1 1 .2 2.1.5 2.9 1 1.1.7 2.2 1.6 3.3 2.4.4.3.9.7 1.3 1 1.8 1.4 4 1.8 6.8 1.2 1.3-.3 2.4-1.1 3.5-1.9l.5-.4c.3-.3.4-.5.5-.6h-.2c-.3 0-.5.1-.7.1h-1.1c-1.9.1-3.8-.1-6.1-.6-1.8-.3-3.3-1.1-4.5-2.3-2.3-2.3-4.3-5-6-8.3-.2-.3-.4-.7-.5-1l-.1-.1-8.8-1c.1.1.2.3.4.4.7 1.1 1.4 1.9 2 2.8zM175.3 393.9c-2.5-.1-5.7-.1-9 .5h.1c.7.2 1.5.4 2.3.5 2.9.4 5.8 1.5 8.9 3.2 1.6.9 3.2 1.8 5 2.5 1.7.6 3.4 1.1 5.1 1.6.6.2 1.2.3 1.8.5l-1.1-.9c-1.3-1.1-2.6-2.2-3.8-3.3-.4-.3-.7-.7-1.1-1-.6-.5-1.1-1-1.7-1.5-1.2-1-2.3-1.5-3.4-1.7-1-.3-2.1-.4-3.1-.4zM68.5 379.1c0 .1.1.3.1.4.1.5.2.9.7 1.1.4 0 .8.1 1.2 0h.1c1 0 2.1 0 3.1.7.2.2.5.3.7.5.5.3.9.6 1.4.9l-.6-.6c-.8-.7-1.7-1.3-2.8-2-.7-.4-1.2-.9-1.6-1.7-.3-.5-.5-.8-.7-.8-1.8-.6-3.1-1.8-4.1-2.8-1-1-1.8-1.7-2.8-2.2-.1.2-.2.3-.3.5-.4.5-.7 1-1.2 1.4-.5.4-1.1.8-1.7 1.2.5-.1 1-.3 1.5-.6.2-.1.3-.2.5-.2l.3-.1c.7-.3 1.6-.8 2.7-.5.1 0 .1 0 .1.1.3.3.6.6.8 1 .5.7 1 1.4 2 1.6.1 0 .2.1.2.2.1.2.1.4.1.6 0 .4.1.8.3 1.3zM76.6 394.6c.8-.8 1.5-1.5 2.1-2.4h-1.3c-1 0-2.1 0-3.1.2-1.1.2-2.3.3-3.5.3h-.4c.4.2.7.3 1.1.5 1.5.6 3 1.2 4.2 2.4.2-.3.6-.7.9-1z"/>
    <path class="st0" d="M77 391h1.6c.2 0 .5.1.6.2h.1l.9-.5c.1-.1.3-.1.4.1.3.4-.1 1.6-.3 1.9-2.3 2.8-4.4 4.8-6.6 6.4-.2.1-.4.3-.6.5.8-.3 1.8-.5 2.8-.5h.7c.3 0 .5.1.8.1.2 0 .5.1.7.1 1.5.1 3.2.3 4.8 1 1.9.8 3.9 1.4 5.9 1.8.9.2 2 .3 3.1.2 1.4-.2 2.8-.5 4.1-.8l1-.2c.5-.1.9-.3 1.4-.5.1-.1.3-.1.4-.2.4-.2.8-.3.9-.5.1-.2.3-.3.4-.4h-.4c-1.8.1-3.6-.3-5.7-1.4l-.4-.2c-1.6-.8-3.3-1.7-5-2.2-.9-.2-1.9-.6-2.6-1.3-.4-.4-.9-.7-1.3-1.1-.8-.7-1.7-1.4-2.4-2.2l-.4-.4c-1.1-1.3-2.2-2.6-3.1-4.1-.1-.2-.2-.3-.4-.5l-.1-.1c-.2.1-.5.2-.7.4-.6.3-1.2.6-1.7.9l-.1.1c-1.2.9-2.4 1.8-3.8 2.3-1 .4-2 .7-3.1 1-.2.1-.3.1-.5.2 1.4.3 2.7.2 4.1 0 1.3-.2 2.9-.1 4.5-.1zM32.5 350.4l.1.2c.4.9.7 1.9 1 2.9.3 1 .5 2 .6 3 .1.4.1.8.2 1.1h.1c1.4.3 2.9.7 4.5.5-1.2-1.9-4.6-5.9-6.5-7.7zM53.2 376.7c-.1 0-.3-.1-.3-.1-.4-.2-.7-.4-1-.5-.7-.4-1.4-.7-2.1-1.2-.8-.6-1.7-1.2-2.5-1.8-.6-.4-1.1-.8-1.7-1.2-.4-.3-.9-.5-1.4-.7-.2-.1-.5-.1-.7-.2-.2 0-.5-.1-.8-.2l-.3-.1c-1.2-.4-2.4-.8-3.3-2-.7-1-1.5-2.2-2.2-3.4l-.1-.1c-1.2-1.9-2.4-3.9-4.1-5.4l-.4-.4c-.5-.5-1-1-1.6-1.2l.1.1c.4.5.7.9 1.1 1.4 1.6 1.8 2.8 3.8 3.8 5.5.2.4.4.7.6 1.1 1 1.7 1.9 3.3 3.4 4.5.7.6 1.5.9 2.3 1.3l.7.3c.3.1.6.3.7.4.8.6 1.5 1.2 2.1 2 .4.6.9 1.2 1.4 1.7.2.3.4.5.6.8.8.9 1.9 1.2 3.1 1 .8-.2 1.6-.2 2.4-.3.9-.1 1.9-.2 2.8-.4 1.1-.2 2-.7 3-1.4-.4.2-.9.3-1.4.4-1.3.2-2.7.1-4.2.1zM43.5 358c.2.5.5 1 .7 1.5.2.5.5 1.1.8 1.6 1.1 2.1 2.5 4 3.9 5.8l.1.1c.7.9 1.6 1.9 2.9 2.6 2 .9 4.1 1.1 6.2 1.3h2c-.6-.4-1.2-.7-1.8-1.2-.6-.4-1.2-.9-1.8-1.3-1-.7-2.1-1.5-3-2.3-1.1-1-2.1-2.1-3-3.1-.7-.8-1.2-1.6-1.7-2.4-.7-1.1-1.3-2.2-1.9-3.3l-.4-.6c-.2-.3-.4-.6-.5-.9-.5-.8-1-1.6-1.3-2.5-.4-1.1-1.1-2.2-2.1-3.3-.6-.6-1-1.3-1.2-2.1-.4-1.2-1.4-2.4-2.6-3.3l.2 1c.3 1.3.7 2.7 1 4 .9 2.7 2.2 5.6 3.5 8.4zM185.6 392l.8.3c1.1.4 2.3.8 3.4 1.3s2.1.8 3.1.8l-6.5-5.4c-.3.3-.6.7-.9 1.1-.5.6-1 1.2-1.6 1.8h.5c.5-.1.9 0 1.2.1zM185 393.2c-.8-.3-1.5-.4-2.1 0-.1 0-.1.1-.2 0-.6 0-1.3.2-1.8.4.1.1.3.2.4.3.6.4 1.2.8 1.7 1.3 1.1 1 2.2 1.9 3.3 2.9.7.6 1.4 1.3 2.1 1.9l.2.1c.2-1 .9-1.7 1.6-2.3.6-.5 1.3-.9 1.9-1.4l.9-.6c-1.5-.1-2.7-.5-3.8-1-1.3-.6-2.8-1.1-4.2-1.6zM37.8 349.6c-.2 0-.4.1-.5.1-.6.1-1.2.2-1.7.2-.6 0-1.2-.1-1.9-.2h-.1c2.9 2.8 5.1 5.8 7.3 8.8l1.2.1-3.4-8.3c-.3-.2-.7-.4-.9-.7zM132.4 397.4c-.3 0-.9.2-1.4.4-.4 2.2-.4 4-.1 6.8.4.2 1.2.4 1.5.4.3 0 1.2.1 1.7-.3.2-3.1.3-4.9 0-7-.6-.1-1.4-.3-1.7-.3zM243.1 193.2l.2-2.6-.2-.2c-.2-.2-.4-.4-.5-.6l-.5-.6c-1.1-1.3-2.3-2.7-2.9-4.4l-.1-.3c-.2-.7-.5-1.3-.8-2-.1-.3-.3-.6-.4-.9-.2-.5-.4-.9-.6-1.4.1 1.1.2 2.2.2 3.3.1 2.3.3 4.5.8 6.6 1.8.9 3.5 1.6 4.8 3.1zM142.8 390.4l-1-.2c0 .1 0 .6.1.7 0 .6-.2 2.9-1.6 5.4 1.7-1.9 2.4-5.2 2.5-5.9zM124.3 394.4l1.1 1c.5.6 1.1.9 1.9 1.2-.1-.1-.3-.2-.3-.2-1.3-1.3-2.3-2.6-3.4-4-.4-.5-.5-.7-.9-1.3-.3-.4-.5-1.1-.5-1.4h-.5c-.3 0-.6 0-.9.2.1.1.1.2.2.3.2.4.7 1.3 1 1.6.8 1 1.3 1.6 2.3 2.6zM143.6 394.1c.3-.4.6-.8 1-1.3.3-.5.6-1.1.5-1.6l-1.1-.5c0 .2 0 .4-.1.6 0 .2-.1.4-.1.6-.1.6-.4 1.2-.7 1.7-.6 1-2 3-3 4.1 1-1 2.7-2.6 3.5-3.6zM185.8 387.7c.4-.4.7-.8 1.1-1.2.2-.2.4-.5.6-.7.4-.5.8-1 1.4-1.4.8-.6 1.4-1.3 2-2 .1-.2.3-.4.5-.5-.5 0-1.1.2-1.6.3-.3.1-.5.1-.8.2-1 .2-1.8.6-2.7 1.1l-.5.3c-1.9.9-3.7 1.8-5.6 2.7l-2.4 1.2s-.1 0-.1.1c0 0-.2.1-.3.1-3.3 1.1-6.6 2.5-10.1 4.4-.7.4-1.4.8-2.2 1.3 0 0-.1 0-.1.1.2 0 .3-.1.5-.1.5-.1 1.1-.2 1.6-.3 1.6-.2 3.3-.4 4.8-.5.5-.1.9 0 1.3 0 .3 0 .5.1.8.1.3 0 .6.1.9.1h1.2c.9 0 1.7 0 2.6.2.4.1.9.1 1.3-.1l.2-.1c1-.5 2-1.1 2.8-1.8.9-1.3 1.9-2.4 2.8-3.5zM238.9 181.1c.4 1.2.9 2.4 1.4 3.6.4.9 1 1.9 1.7 2.9.4.5.8 1 1.3 1.5l.3.3c.1-.2.1-.4.2-.6.3-.8.5-1.5.8-2.3.5-1.2.2-2.4-.2-3.3-2.4-.6-4.4-1.7-5.9-2.7.2.1.3.4.4.6zM231.9 163.7c-.6-.2-1.2-.3-1.8-.6-1.5-.5-3.1-.6-4.4-.6-1.1 0-2.1-.1-3.1-.3-1.2-.3-2.2-.8-2.9-1.8-.1-.1-.2-.2-.3-.4 1 1.5 2 3.1 3.1 4.6 1.7 2.3 4 3.5 7.1 3.7 1.4 0 2.8 0 4.2-.1.7 0 1.3-.1 2-.1h1.5c.8-.2 1.5-.3 2.2-.2-1.1-1.1-2.3-2-3.7-2.9-1.3-.6-2.6-1-3.9-1.3zM258.1 300.6c-.7.6-1.4 1.3-2.2 1.9-.4.4-.9.7-1.3 1.1l-1.8 1.5c-1.4 1.2-2.3 2.8-2.9 4-.9 1.7-2.1 3.1-4 4.6-.2.1-.4.3-.6.4-.7.5-1.4 1.1-2 1.7.3-.1.5-.3.8-.4.6-.3 1.1-.6 1.8-.8 1.5-.5 2.7-1.5 3.6-2.3.5-.5 1.1-1.1 1.5-1.9.4-.9.9-1.6 1.5-2.1l.4-.4c1.1-1 2.2-2 2.7-3.5.1-.2.2-.3.4-.5.1 0 .1-.1.1-.1l.8-1c.8-.9 1.6-1.8 2.3-2.8.1-.2.3-.4.4-.6-.5.3-.9.6-1.3 1l-.2.2zM42.6 314.3c-.8-.2-1.6.1-2.5.7-1.7 1.2-3.6 2.2-5.3 3.4-.3-.4-.5-.8-.6-1.2-.1-.5-.3-.9-.4-1.4-.1-.5-.3-1-.4-1.4l-.2-.7c-.8-2.6-1.7-5.2-2.2-7.9-.1-.4-.2-.7-.2-1.1-.4-1.9-.8-3.8-.7-5.8.1-1 .2-2.1.5-3.2-.1 0-.2.1-.3.2 0-.5.1-1 .1-1.5.1-.8.3-1.6.6-2.2 1.3-2.9 2.7-5 4.4-6.9.2-1.8-.5-3.4-1.3-5.1v.6c0 1.3 0 2.7-.3 4-.1.2-.1.5-.1.7-.2.9-.3 1.8-.9 2.7l-.3.3-.1.1c-.1.1-.3.1-.4 0l-.7-.7s-.1-.1-.1-.2c.1-1.1-.4-2-.9-3-.1-.2-.2-.3-.3-.5-.8-1.5-1.6-3-2.2-4.6 0 .6 0 1.1-.1 1.7 0 1-.1 2-.1 3.1-.1 1.9-.1 3.9-.1 5.7 0 2.3 0 4.7-.2 7-.2 1.6-.3 3.6.2 5.5.1.6.3 1.2.4 1.8.2.8.3 1.7.6 2.5.4 1.3.9 2.6 1.4 3.9.2.5.4.9.5 1.4.1.2.2.5.4.7.2.3.4.6.6 1 .5.8 1.1 1.7 1.7 2.5 1 1.4 1.6 3.1 1.7 5.2.1 1.9.7 3.6 1.7 5s2 2.8 3 4.1l.1.2c-.9-2.1-1.6-4.2-2.3-6.3-.3-.9-.6-1.7-.9-2.6-.2-.5-.4-1-.6-1.4-.7-2 .7-2.8 2.1-3.5 1.2-.6 1.6.1 2.1.9-.1-.2-.1-.5-.1-.7.1-1.8 1.2-2.9 2.7-3z"/>
    <path class="st0" d="M31.5 284.1c.1.1.2.1.3.2.1 0 .1.1.1.1l.3 1.1c.3-1.7.4-3.2.3-4.9l-2.1 1.7c.1.1.1.2.2.3l.6 1.2c0 .2.2.3.3.3zM119.8 392c.2.5.3.7.6 1.2 1 1.5 1.9 2.1 3.1 3 .8.6 2.7 1.5 3.3 1.6-2.8-1.6-5.1-3.8-7.1-6.7.2.1.1.8.1.9zM77.8 371.1c1.4-.6 2-2.2 1.4-3.5-.6-1.3-2.2-2-3.5-1.4-1.4.6-2 2.2-1.4 3.5.5 1.4 2.1 2 3.5 1.4zM243.6 178c-.3-.5-.6-1.1-.8-1.7-.2-.6-.3-1.3-.5-1.9 0-.1 0-.2-.1-.4v1.1c0 1 .3 1.9.9 3 .2.3.4.7.7 1 .9 1.4 1.8 2.7 2.1 4.4 0 0 .1-.1.1-.2.3-.5.6-1 .6-1.5-.3-.4-.6-.7-.9-1.1l-2.1-2.7zM43.6 320c1.5 0 2.7-1.2 2.7-2.7 0-1.5-1.2-2.7-2.7-2.7s-2.7 1.2-2.7 2.7c0 1.5 1.2 2.7 2.7 2.7zM36.3 306.4c-.3.7-.7 1.5-.9 2.3-.2 1-.3 2.1-.3 3.1v.4c.1-.2.3-.5.4-.7.3-.5.6-.9.9-1.3.4-.7.9-1.3 1.3-2l.2-.3c.9-1.5 1.9-3 2.5-4.7.9-2.3 1.1-4.8 1.3-7.1.2-3.4 0-6.8-.3-10.8 0-.6-.1-1.2-.2-1.8v-.1c-.6.8-1 1.6-1 2.6-.1 1.6-.5 3.2-1.4 4.7-.8 1.4-.9 2.8-1.1 4.4l-.1.7c0 .2 0 .5.1.8.1.2.1.5.1.8.1 3.3-.3 5.9-1.3 8.3 0 .3-.1.5-.2.7zM234.1 285.1c-.2.4-.4.8-.5 1.2-.3.7-.7 1.5-1 2.2-.3.6-.8 1.2-1.2 1.8l-.3.4c0 .1-.2.2-.3.4l3.3 1.6v-.2c0-.5 0-1-.1-1.4 0-1.1-.1-2.2 0-3.4-.1-.9 0-1.8.1-2.6zM243.4 309.8l.3-.6c.2-.5.4-.9.6-1.4 1.7-3.5 2.8-7 3.3-10.5.1-.8.2-1.6.2-2.4.1-.9.1-1.8.3-2.7l.1-.5c.1-.8.2-1.6.4-2.3.1-.7.3-1.4.4-2.2-.8 1.8-1.5 3.4-2.4 4.8l-1.5 2.7c-.6 1.1-1.3 2.2-1.9 3.4l-.4.8c-.7 1.2-1.3 2.4-1.9 3.6-.8 1.7-1.5 3.8-1.4 6 .1 2-.4 3.9-1 5.4-.3.9-.7 1.8-1.1 2.7l-.1.1c.5-.4 1-.9 1.6-1.3 2-1.5 3.5-3.4 4.5-5.6zM236.3 191.4c-1 .1-1.9.1-2.8 0h-.2c-1.5-.1-3-.3-4.3-1.1-.2-.1-.3-.2-.5-.3.1.1.1.2.2.4.5.8.8 1.5 1.3 2.1.5.7 1.1 1.3 1.7 2l.3.3c.9.9 1.8 1.9 2.6 2.8.8.8 1.6 1.6 2.3 2.5.4.4.8.8 1.1 1.2.5.6 1 1.1 1.5 1.6.8.8 1.3 1.7 1.9 2.6.3.4.5.8.8 1.2.8 1.1 1.9 1.7 3.3 1.7.7 0 1.4-.1 2.2-.2.3 0 .6-.1.9-.1.1-.7-.1-1.5-.3-2.2l-.1-.4c-.5-1.9-1.3-3.9-2.7-6.1-.5-.9-1-1.8-1.5-2.8-.2-.4-.4-.8-.6-1.3l-.8-.4c-.1 0-.1-.1-.1-.1-.1-.2-.1-.3-.1-.4 0-.2-.1-.3-.2-.4-.5-.5-1-.9-1.5-1.2-1.2-.8-2.6-1.5-4.4-1.4zM232.2 306.4c.1-.7.1-1.4.3-2.2.5-2.2 1.2-4.8 2.5-7.2.1-.2.2-.4.2-.7 0 0 0-.2.1-.2-.1-.1-.2-.3-.3-.4l-.6-.9c-.5-.6-1.2-1.1-2.2-1.7l-.6-.3c-1.6-.8-3.2-1.5-4.6-2.8-.3-.3-.7-.6-1.1-.8.3.5.5.9.8 1.4.5.9.9 1.8 1.7 2.5 0 0 .1.1.1.2l.3 1.2c.2.9.5 1.8.6 2.7.2 1.4.2 2.8.3 4.1V303c0 .8.1 1.6.2 2.5.4 1.7 1 3.2 2 4.4-.1-.7-.1-1.3.2-2.1v-.2-.3c0-.3 0-.6.1-.9zM247.8 237.1l.1.2 1-1.8-.3-.4c-.3-.4-.6-.9-.9-1.3l-.4-.6c-.5-.7-1-1.5-1.6-2.2-.9-1.1-1.7-1.9-2.9-2.2 1.1 1.3 1.9 2.9 2.8 4.4.4.7.7 1.4 1.1 2.1l.6 1.2c.3.2.4.4.5.6zM246.7 237.7c-1.4-2.5-3-5.5-4.8-8.2 0-.1-.1-.1-.1-.2v3.5c-.1 1.6-.2 3-1 4.3-.1.1-.1.2-.2.4 1.6.2 2.9.9 4.2 1.6.6.3 1.1.6 1.7.9.5-.8.6-1.5.2-2.3zM242 222.3c1.5-.4 2.4-2 2-3.6-.4-1.5-2-2.4-3.6-2-1.5.4-2.4 2-2 3.6.5 1.5 2.1 2.4 3.6 2zM241.3 268.9c-.2-1.6-1.6-2.7-3.2-2.5-1.6.2-2.7 1.6-2.5 3.2.2 1.6 1.6 2.7 3.2 2.5 1.5-.2 2.6-1.6 2.5-3.2zM235.4 293.9l.8 1.1 3.1-4c-2.2-1.3-2.6-2.3-3.2-4-.2-.7-.5-1.4-.7-2.1v-.1c0 .2 0 .4-.1.6-.2 1.1-.3 2.3-.3 3.5 0 1.2.1 2.4.2 3.6.1.4.1.9.2 1.4zM245.1 258.6h.1c-.8-.9-1.5-1.7-2.2-2.4-.3-.3-.6-.7-1-1-.6-.6-1.2-1.2-1.7-1.8-.5-.6-.9-1.3-1.1-2.1-.2-.6-.2-1.2-.3-1.8 0-.4-.1-.7-.1-1.1l-.1-.4c-.1-.8-.2-1.6-.4-2.3-.4-1.5-1.5-2.7-2.6-3.9l-.3-.3c.1.6.2 1.1.2 1.7v2c0 .8-.1 1.6 0 2.4 0 .9.3 1.8.5 2.6.6 2.1 1.8 3.8 3.7 5 .4.3.9.6 1.3.9.7.4 1.4.9 2.1 1.3.5.5 1.2.8 1.9 1.2z"/>
  </g>
</svg>
